<svg width="12" height="17" viewBox="0 0 12 17" fill="none" xmlns="http://www.w3.org/2000/svg">
<mask id="path-1-outside-1_3_1831" maskUnits="userSpaceOnUse" x="0" y="0.240173" width="12" height="16" fill="black">
<rect fill="white" y="0.240173" width="12" height="16"/>
<path d="M1.62336 15.2402V13.0802L4.64336 9.98017C5.21669 9.39351 5.71003 8.88017 6.12336 8.44017C6.53669 7.98684 6.85003 7.56017 7.06336 7.16017C7.29003 6.76017 7.40336 6.33351 7.40336 5.88017C7.40336 5.21351 7.21669 4.76684 6.84336 4.54017C6.47003 4.30017 5.87003 4.18017 5.04336 4.18017C4.71003 4.18017 4.34336 4.20017 3.94336 4.24017C3.54336 4.28017 3.15669 4.32684 2.78336 4.38017C2.42336 4.43351 2.11003 4.48684 1.84336 4.54017L1.70336 2.42017C1.99669 2.34017 2.35669 2.25351 2.78336 2.16017C3.22336 2.06684 3.69669 1.98684 4.20336 1.92017C4.72336 1.84017 5.23003 1.80017 5.72336 1.80017C7.16336 1.80017 8.26336 2.10684 9.02336 2.72017C9.78336 3.32017 10.1634 4.25351 10.1634 5.52017C10.1634 6.21351 10.0634 6.82684 9.86336 7.36017C9.67669 7.89351 9.37669 8.40684 8.96336 8.90017C8.56336 9.38017 8.03003 9.90684 7.36336 10.4802L4.72336 13.0002H10.3434V15.2402H1.62336Z"/>
</mask>
<path d="M1.62336 15.2402H0.62336V16.2402H1.62336V15.2402ZM1.62336 13.0802L0.907071 12.3824L0.62336 12.6736V13.0802H1.62336ZM4.64336 9.98017L3.92817 9.28124L3.92707 9.28237L4.64336 9.98017ZM6.12336 8.44017L6.85221 9.12485L6.8573 9.11943L6.86232 9.11393L6.12336 8.44017ZM7.06336 7.16017L6.19334 6.66716L6.18703 6.67829L6.18101 6.68958L7.06336 7.16017ZM6.84336 4.54017L6.3026 5.38135L6.3134 5.3883L6.32438 5.39496L6.84336 4.54017ZM3.94336 4.24017L4.04286 5.23521H4.04286L3.94336 4.24017ZM2.78336 4.38017L2.64194 3.39021L2.63681 3.39097L2.78336 4.38017ZM1.84336 4.54017L0.845533 4.60607L0.920713 5.74451L2.03948 5.52075L1.84336 4.54017ZM1.70336 2.42017L1.44024 1.45541L0.651673 1.67047L0.705533 2.48607L1.70336 2.42017ZM2.78336 2.16017L2.57585 1.18192L2.56966 1.18327L2.78336 2.16017ZM4.20336 1.92017L4.33381 2.91163L4.34463 2.9102L4.35542 2.90854L4.20336 1.92017ZM9.02336 2.72017L8.3953 3.49841L8.40372 3.50505L9.02336 2.72017ZM9.86336 7.36017L8.92703 7.00905L8.92315 7.01939L8.9195 7.02982L9.86336 7.36017ZM8.96336 8.90017L8.19684 8.25795L8.19514 8.25999L8.96336 8.90017ZM7.36336 10.4802L6.71132 9.72199L6.69165 9.7389L6.67288 9.75682L7.36336 10.4802ZM4.72336 13.0002L4.03288 12.2768L2.22746 14.0002H4.72336V13.0002ZM10.3434 13.0002H11.3434V12.0002H10.3434V13.0002ZM10.3434 15.2402V16.2402H11.3434V15.2402H10.3434ZM2.62336 15.2402V13.0802H0.62336V15.2402H2.62336ZM2.33965 13.778L5.35965 10.678L3.92707 9.28237L0.907071 12.3824L2.33965 13.778ZM5.35855 10.6791C5.93497 10.0893 6.4331 9.57099 6.85221 9.12485L5.39451 7.7555C4.98695 8.18935 4.49841 8.69774 3.92817 9.28124L5.35855 10.6791ZM6.86232 9.11393C7.31341 8.61918 7.68222 8.12481 7.94571 7.63076L6.18101 6.68958C6.01783 6.99553 5.75998 7.3545 5.3844 7.76642L6.86232 9.11393ZM7.93338 7.65319C8.24398 7.10507 8.40336 6.50886 8.40336 5.88017H6.40336C6.40336 6.15815 6.33607 6.41527 6.19334 6.66716L7.93338 7.65319ZM8.40336 5.88017C8.40336 5.06078 8.17082 4.17625 7.36234 3.68539L6.32438 5.39496C6.32445 5.395 6.32415 5.39482 6.32357 5.3944C6.323 5.39398 6.32231 5.39345 6.32159 5.39283C6.32 5.39145 6.31927 5.39056 6.31952 5.39086C6.31958 5.39093 6.32838 5.4013 6.34069 5.43077C6.36763 5.49522 6.40336 5.63255 6.40336 5.88017H8.40336ZM7.38412 3.69899C6.76193 3.29902 5.92085 3.18017 5.04336 3.18017V5.18017C5.81921 5.18017 6.17812 5.30133 6.3026 5.38135L7.38412 3.69899ZM5.04336 3.18017C4.67087 3.18017 4.27044 3.20248 3.84385 3.24514L4.04286 5.23521C4.41627 5.19787 4.74918 5.18017 5.04336 5.18017V3.18017ZM3.84386 3.24514C3.43076 3.28645 3.03008 3.33477 2.64194 3.39022L2.92478 5.37012C3.2833 5.3189 3.65596 5.2739 4.04286 5.23521L3.84386 3.24514ZM2.63681 3.39097C2.26537 3.446 1.93477 3.50209 1.64724 3.55959L2.03948 5.52075C2.28528 5.47159 2.58135 5.42101 2.92991 5.36938L2.63681 3.39097ZM2.84119 4.47428L2.70119 2.35428L0.705533 2.48607L0.845533 4.60607L2.84119 4.47428ZM1.96648 3.38494C2.2381 3.31086 2.58049 3.2282 2.99706 3.13707L2.56966 1.18327C2.13289 1.27882 1.75528 1.36949 1.44024 1.45541L1.96648 3.38494ZM2.99086 3.13841C3.40221 3.05115 3.84959 2.97534 4.33381 2.91163L4.07291 0.928719C3.5438 0.998338 3.04451 1.08253 2.57586 1.18194L2.99086 3.13841ZM4.35542 2.90854C4.8284 2.83578 5.28417 2.80017 5.72336 2.80017V0.800172C5.17588 0.800172 4.61831 0.844568 4.0513 0.931802L4.35542 2.90854ZM5.72336 2.80017C7.03952 2.80017 7.88042 3.08282 8.39534 3.49837L9.65138 1.94197C8.6463 1.13086 7.2872 0.800172 5.72336 0.800172V2.80017ZM8.40372 3.50505C8.85343 3.8601 9.16336 4.45752 9.16336 5.52017H11.1634C11.1634 4.04949 10.7133 2.78025 9.643 1.93529L8.40372 3.50505ZM9.16336 5.52017C9.16336 6.11884 9.07689 6.60943 8.92703 7.00905L10.7997 7.7113C11.0498 7.04425 11.1634 6.30817 11.1634 5.52017H9.16336ZM8.9195 7.02982C8.7778 7.4347 8.54339 7.84433 8.19684 8.25795L9.72988 9.54239C10.21 8.96935 10.5756 8.35232 10.8072 7.69052L8.9195 7.02982ZM8.19514 8.25999C7.84156 8.68429 7.35153 9.17141 6.71132 9.72199L8.0154 11.2384C8.70853 10.6423 9.28516 10.0761 9.73158 9.54036L8.19514 8.25999ZM6.67288 9.75682L4.03288 12.2768L5.41384 13.7235L8.05384 11.2035L6.67288 9.75682ZM4.72336 14.0002H10.3434V12.0002H4.72336V14.0002ZM9.34336 13.0002V15.2402H11.3434V13.0002H9.34336ZM10.3434 14.2402H1.62336V16.2402H10.3434V14.2402Z" fill="#065DFF" mask="url(#path-1-outside-1_3_1831)"/>
</svg>
