<svg width="12" height="17" viewBox="0 0 12 17" fill="none" xmlns="http://www.w3.org/2000/svg">
<mask id="path-1-outside-1_3_1838" maskUnits="userSpaceOnUse" x="0" y="0.240173" width="12" height="17" fill="black">
<rect fill="white" y="0.240173" width="12" height="17"/>
<path d="M5.78336 15.4602C5.29003 15.4602 4.77003 15.4335 4.22336 15.3802C3.69003 15.3268 3.17669 15.2602 2.68336 15.1802C2.20336 15.0868 1.80336 15.0068 1.48336 14.9402L1.60336 12.8002C1.92336 12.8402 2.30336 12.8868 2.74336 12.9402C3.19669 12.9935 3.65669 13.0402 4.12336 13.0802C4.60336 13.1068 5.04336 13.1202 5.44336 13.1202C6.20336 13.1202 6.77003 12.9802 7.14336 12.7002C7.51669 12.4202 7.70336 11.9668 7.70336 11.3402C7.70336 10.9135 7.61669 10.5802 7.44336 10.3402C7.28336 10.0868 7.04336 9.90017 6.72336 9.78017C6.41669 9.66017 6.05669 9.59351 5.64336 9.58017H2.92336V7.38017H5.58336C5.89003 7.38017 6.18336 7.31351 6.46336 7.18017C6.75669 7.04684 6.99003 6.85351 7.16336 6.60017C7.35003 6.34684 7.44336 6.04017 7.44336 5.68017C7.44336 5.12017 7.27003 4.72684 6.92336 4.50017C6.59003 4.26017 6.04336 4.14017 5.28336 4.14017C4.88336 4.14017 4.46336 4.16017 4.02336 4.20017C3.58336 4.24017 3.16336 4.28684 2.76336 4.34017C2.36336 4.38017 2.03003 4.42684 1.76336 4.48017L1.64336 2.38017C1.93669 2.30017 2.29669 2.22017 2.72336 2.14017C3.15003 2.04684 3.60336 1.97351 4.08336 1.92017C4.56336 1.85351 5.01669 1.82017 5.44336 1.82017C6.57669 1.82017 7.49003 1.94017 8.18336 2.18017C8.89003 2.40684 9.40336 2.78684 9.72336 3.32017C10.0434 3.84017 10.2034 4.52684 10.2034 5.38017C10.2034 5.84684 10.1434 6.24017 10.0234 6.56017C9.91669 6.88017 9.77003 7.15351 9.58336 7.38017C9.41003 7.60684 9.23003 7.79351 9.04336 7.94017C8.85669 8.07351 8.68336 8.19351 8.52336 8.30017C8.92336 8.48684 9.27003 8.69351 9.56336 8.92017C9.85669 9.14684 10.0834 9.44684 10.2434 9.82017C10.4034 10.1935 10.4834 10.6935 10.4834 11.3202C10.4834 12.3202 10.31 13.1268 9.96336 13.7402C9.61669 14.3402 9.09669 14.7802 8.40336 15.0602C7.71003 15.3268 6.83669 15.4602 5.78336 15.4602Z"/>
</mask>
<path d="M4.22336 15.3802L4.12386 16.3752L4.12626 16.3754L4.22336 15.3802ZM2.68336 15.1802L2.49249 16.1618L2.50785 16.1648L2.52329 16.1673L2.68336 15.1802ZM1.48336 14.9402L0.484928 14.8842L0.436737 15.7436L1.27941 15.9192L1.48336 14.9402ZM1.60336 12.8002L1.72739 11.8079L0.664878 11.6751L0.604928 12.7442L1.60336 12.8002ZM2.74336 12.9402L2.62303 13.9329L2.62652 13.9333L2.74336 12.9402ZM4.12336 13.0802L4.03796 14.0765L4.05291 14.0778L4.06789 14.0786L4.12336 13.0802ZM7.44336 10.3402L6.59787 10.8742L6.61448 10.9005L6.63268 10.9257L7.44336 10.3402ZM6.72336 9.78017L6.35896 10.7114L6.36558 10.714L6.37224 10.7165L6.72336 9.78017ZM5.64336 9.58017L5.6756 8.58069L5.65948 8.58017H5.64336V9.58017ZM2.92336 9.58017H1.92336V10.5802H2.92336V9.58017ZM2.92336 7.38017V6.38017H1.92336V7.38017H2.92336ZM6.46336 7.18017L6.04956 6.26981L6.04146 6.27349L6.03343 6.27731L6.46336 7.18017ZM7.16336 6.60017L6.3583 6.00697L6.34793 6.02105L6.33805 6.03549L7.16336 6.60017ZM6.92336 4.50017L6.33905 5.31171L6.3573 5.32484L6.37611 5.33714L6.92336 4.50017ZM4.02336 4.20017L3.93283 3.20428L3.93282 3.20428L4.02336 4.20017ZM2.76336 4.34017L2.86286 5.33521L2.87922 5.33357L2.89552 5.3314L2.76336 4.34017ZM1.76336 4.48017L0.764988 4.53722L0.830662 5.68652L1.95948 5.46075L1.76336 4.48017ZM1.64336 2.38017L1.38024 1.41541L0.598777 1.62854L0.644988 2.43722L1.64336 2.38017ZM2.72336 2.14017L2.90765 3.12304L2.9224 3.12028L2.93706 3.11707L2.72336 2.14017ZM4.08336 1.92017L4.19379 2.91406L4.20738 2.91255L4.22093 2.91067L4.08336 1.92017ZM8.18336 2.18017L7.85625 3.12516L7.86705 3.1289L7.87793 3.13239L8.18336 2.18017ZM9.72336 3.32017L8.86581 3.8347L8.8717 3.84427L9.72336 3.32017ZM10.0234 6.56017L9.08703 6.20905L9.08053 6.22638L9.07468 6.24394L10.0234 6.56017ZM9.58336 7.38017L8.81143 6.74447L8.79996 6.75839L8.789 6.77272L9.58336 7.38017ZM9.04336 7.94017L9.6246 8.75391L9.6432 8.74062L9.66118 8.72649L9.04336 7.94017ZM8.52336 8.30017L7.96866 7.46812L6.4892 8.45443L8.10047 9.20636L8.52336 8.30017ZM9.56336 8.92017L10.1748 8.12889H10.1748L9.56336 8.92017ZM10.2434 9.82017L9.32421 10.2141L10.2434 9.82017ZM9.96336 13.7402L10.8293 14.2405L10.8339 14.2322L9.96336 13.7402ZM8.40336 15.0602L8.76234 15.9935L8.77011 15.9905L8.77782 15.9874L8.40336 15.0602ZM5.78336 14.4602C5.32584 14.4602 4.83842 14.4354 4.32046 14.3849L4.12626 16.3754C4.70164 16.4316 5.25421 16.4602 5.78336 16.4602V14.4602ZM4.32286 14.3851C3.80835 14.3337 3.31528 14.2696 2.84343 14.1931L2.52329 16.1673C3.03811 16.2508 3.5717 16.32 4.12386 16.3752L4.32286 14.3851ZM2.87423 14.1986C2.39669 14.1057 2.0014 14.0266 1.68731 13.9612L1.27941 15.9192C1.60532 15.9871 2.01003 16.068 2.49249 16.1618L2.87423 14.1986ZM2.48179 14.9962L2.60179 12.8562L0.604928 12.7442L0.484928 14.8842L2.48179 14.9962ZM1.47932 13.7925C1.80092 13.8327 2.18221 13.8795 2.62303 13.9329L2.86369 11.9474C2.42451 11.8942 2.0458 11.8477 1.72739 11.8079L1.47932 13.7925ZM2.62652 13.9333C3.09058 13.9879 3.56107 14.0356 4.03796 14.0765L4.20876 12.0838C3.75232 12.0447 3.3028 11.9991 2.8602 11.947L2.62652 13.9333ZM4.06789 14.0786C4.56282 14.1061 5.02162 14.1202 5.44336 14.1202V12.1202C5.0651 12.1202 4.6439 12.1076 4.17883 12.0817L4.06789 14.0786ZM5.44336 14.1202C6.29472 14.1202 7.11825 13.969 7.74336 13.5002L6.54336 11.9002C6.4218 11.9913 6.112 12.1202 5.44336 12.1202V14.1202ZM7.74336 13.5002C8.44917 12.9708 8.70336 12.1649 8.70336 11.3402H6.70336C6.70336 11.7688 6.58422 11.8695 6.54336 11.9002L7.74336 13.5002ZM8.70336 11.3402C8.70336 10.7924 8.59399 10.2254 8.25404 9.75468L6.63268 10.9257C6.63939 10.935 6.70336 11.0346 6.70336 11.3402H8.70336ZM8.28885 9.80618C7.99632 9.343 7.56871 9.02918 7.07448 8.84384L6.37224 10.7165C6.51801 10.7712 6.5704 10.8307 6.59787 10.8742L8.28885 9.80618ZM7.08776 8.84893C6.65188 8.67837 6.17486 8.5968 5.6756 8.58069L5.61112 10.5797C5.93853 10.5902 6.1815 10.642 6.35896 10.7114L7.08776 8.84893ZM5.64336 8.58017H2.92336V10.5802H5.64336V8.58017ZM3.92336 9.58017V7.38017H1.92336V9.58017H3.92336ZM2.92336 8.38017H5.58336V6.38017H2.92336V8.38017ZM5.58336 8.38017C6.04051 8.38017 6.48056 8.27957 6.89329 8.08303L6.03343 6.27731C5.88616 6.34744 5.73955 6.38017 5.58336 6.38017V8.38017ZM6.87716 8.09054C7.32801 7.88561 7.70705 7.57644 7.98867 7.16486L6.33805 6.03549C6.273 6.13057 6.18538 6.20807 6.04956 6.26981L6.87716 8.09054ZM7.96842 7.19337C8.29947 6.74408 8.44336 6.22163 8.44336 5.68017H6.44336C6.44336 5.85872 6.40058 5.9496 6.3583 6.00697L7.96842 7.19337ZM8.44336 5.68017C8.44336 4.91413 8.19451 4.13652 7.47061 3.6632L6.37611 5.33714C6.3811 5.34041 6.38655 5.34183 6.39827 5.36843C6.41474 5.40579 6.44336 5.49883 6.44336 5.68017H8.44336ZM7.50766 3.68864C6.91145 3.25937 6.09892 3.14017 5.28336 3.14017V5.14017C5.9878 5.14017 6.2686 5.26098 6.33905 5.31171L7.50766 3.68864ZM5.28336 3.14017C4.8502 3.14017 4.39986 3.16182 3.93283 3.20428L4.11389 5.19607C4.52686 5.15852 4.91652 5.14017 5.28336 5.14017V3.14017ZM3.93282 3.20428C3.4802 3.24543 3.04626 3.2936 2.6312 3.34895L2.89552 5.3314C3.28046 5.28008 3.68651 5.23492 4.1139 5.19607L3.93282 3.20428ZM2.66386 3.34514C2.24518 3.387 1.87702 3.43764 1.56724 3.49959L1.95948 5.46075C2.18303 5.41604 2.48154 5.37334 2.86286 5.33521L2.66386 3.34514ZM2.76173 4.42312L2.64173 2.32312L0.644988 2.43722L0.764988 4.53722L2.76173 4.42312ZM1.90648 3.34494C2.16542 3.27432 2.49731 3.19998 2.90765 3.12304L2.53907 1.1573C2.09607 1.24036 1.70797 1.32603 1.38024 1.41541L1.90648 3.34494ZM2.93706 3.11707C3.32627 3.03193 3.7449 2.96393 4.19379 2.91406L3.97293 0.926289C3.46181 0.983079 2.97378 1.06175 2.50966 1.16327L2.93706 3.11707ZM4.22093 2.91067C4.66135 2.8495 5.0684 2.82017 5.44336 2.82017V0.820173C4.96499 0.820173 4.46537 0.857517 3.94579 0.929681L4.22093 2.91067ZM5.44336 2.82017C6.5192 2.82017 7.30918 2.93579 7.85625 3.12516L8.51047 1.23519C7.67087 0.944558 6.63419 0.820173 5.44336 0.820173V2.82017ZM7.87793 3.13239C8.4005 3.3 8.69391 3.54808 8.86587 3.83467L10.5809 2.80568C10.1128 2.0256 9.37955 1.51367 8.48879 1.22796L7.87793 3.13239ZM8.8717 3.84427C9.06348 4.15592 9.20336 4.64155 9.20336 5.38017H11.2034C11.2034 4.41213 11.0232 3.52443 10.575 2.79607L8.8717 3.84427ZM9.20336 5.38017C9.20336 5.76781 9.15263 6.03412 9.08703 6.20905L10.9597 6.9113C11.1341 6.44623 11.2034 5.92587 11.2034 5.38017H9.20336ZM9.07468 6.24394C9.00112 6.46461 8.90938 6.62553 8.81143 6.74447L10.3553 8.01588C10.6307 7.68148 10.8323 7.29573 10.972 6.8764L9.07468 6.24394ZM8.789 6.77272C8.65684 6.94555 8.53436 7.06835 8.42554 7.15385L9.66118 8.72649C9.9257 8.51866 10.1632 8.26813 10.3777 7.98762L8.789 6.77272ZM8.46212 7.12644C8.28259 7.25467 8.11821 7.36842 7.96866 7.46812L9.07806 9.13222C9.24851 9.01859 9.43079 8.89234 9.6246 8.75391L8.46212 7.12644ZM8.10047 9.20636C8.44584 9.36753 8.72682 9.53752 8.95191 9.71146L10.1748 8.12889C9.81323 7.84949 9.40088 7.60615 8.94625 7.39399L8.10047 9.20636ZM8.95191 9.71146C9.0979 9.82427 9.2247 9.9819 9.32421 10.2141L11.1625 9.42625C10.942 8.91178 10.6155 8.46941 10.1748 8.12889L8.95191 9.71146ZM9.32421 10.2141C9.4099 10.414 9.48336 10.763 9.48336 11.3202H11.4834C11.4834 10.624 11.3968 9.97299 11.1625 9.42625L9.32421 10.2141ZM9.48336 11.3202C9.48336 12.216 9.32639 12.8348 9.0928 13.2481L10.8339 14.2322C11.2937 13.4188 11.4834 12.4244 11.4834 11.3202H9.48336ZM9.09749 13.2399C8.87148 13.6311 8.53283 13.9294 8.0289 14.1329L8.77782 15.9874C9.66055 15.6309 10.3619 15.0493 10.8292 14.2404L9.09749 13.2399ZM8.04438 14.1268C7.5027 14.3352 6.76122 14.4602 5.78336 14.4602V16.4602C6.91217 16.4602 7.91735 16.3185 8.76234 15.9935L8.04438 14.1268Z" fill="#1298B3" mask="url(#path-1-outside-1_3_1838)"/>
</svg>
