<svg width="13" height="16" viewBox="0 0 13 16" fill="none" xmlns="http://www.w3.org/2000/svg">
<mask id="path-1-outside-1_3_1845" maskUnits="userSpaceOnUse" x="0" y="-0.759827" width="13" height="16" fill="black">
<rect fill="white" y="-0.759827" width="13" height="16"/>
<path d="M7.08336 14.2402V12.0402H1.08336V10.0402L4.08336 1.04017H7.16336L3.82336 9.74017H7.08336L7.24336 6.34017L9.80336 6.30017V9.74017H11.0234V12.0402H9.80336V14.2402H7.08336Z"/>
</mask>
<path d="M7.08336 14.2402H6.08336V15.2402H7.08336V14.2402ZM7.08336 12.0402H8.08336V11.0402H7.08336V12.0402ZM1.08336 12.0402H0.0833592V13.0402H1.08336V12.0402ZM1.08336 10.0402L0.134676 9.72395L0.0833592 9.8779V10.0402H1.08336ZM4.08336 1.04017V0.0401726H3.3626L3.13468 0.723945L4.08336 1.04017ZM7.16336 1.04017L8.09693 1.39858L8.61843 0.0401726H7.16336V1.04017ZM3.82336 9.74017L2.88979 9.38177L2.36829 10.7402H3.82336V9.74017ZM7.08336 9.74017V10.7402H8.03741L8.08225 9.78718L7.08336 9.74017ZM7.24336 6.34017L7.22774 5.34029L6.28862 5.35497L6.24446 6.29317L7.24336 6.34017ZM9.80336 6.30017H10.8034V5.28443L9.78774 5.30029L9.80336 6.30017ZM9.80336 9.74017H8.80336V10.7402H9.80336V9.74017ZM11.0234 9.74017H12.0234V8.74017H11.0234V9.74017ZM11.0234 12.0402V13.0402H12.0234V12.0402H11.0234ZM9.80336 12.0402V11.0402H8.80336V12.0402H9.80336ZM9.80336 14.2402V15.2402H10.8034V14.2402H9.80336ZM8.08336 14.2402V12.0402H6.08336V14.2402H8.08336ZM7.08336 11.0402H1.08336V13.0402H7.08336V11.0402ZM2.08336 12.0402V10.0402H0.0833592V12.0402H2.08336ZM2.03204 10.3564L5.03204 1.3564L3.13468 0.723945L0.134676 9.72395L2.03204 10.3564ZM4.08336 2.04017H7.16336V0.0401726H4.08336V2.04017ZM6.22979 0.681769L2.88979 9.38177L4.75693 10.0986L8.09693 1.39858L6.22979 0.681769ZM3.82336 10.7402H7.08336V8.74017H3.82336V10.7402ZM8.08225 9.78718L8.24225 6.38718L6.24446 6.29317L6.08447 9.69317L8.08225 9.78718ZM7.25898 7.34005L9.81898 7.30005L9.78774 5.30029L7.22774 5.34029L7.25898 7.34005ZM8.80336 6.30017V9.74017H10.8034V6.30017H8.80336ZM9.80336 10.7402H11.0234V8.74017H9.80336V10.7402ZM10.0234 9.74017V12.0402H12.0234V9.74017H10.0234ZM11.0234 11.0402H9.80336V13.0402H11.0234V11.0402ZM8.80336 12.0402V14.2402H10.8034V12.0402H8.80336ZM9.80336 13.2402H7.08336V15.2402H9.80336V13.2402Z" fill="#607D26" mask="url(#path-1-outside-1_3_1845)"/>
</svg>
