<svg width="33" height="32" viewBox="0 0 33 32" fill="none" xmlns="http://www.w3.org/2000/svg">
<path d="M16.5 30.3327C8.59329 30.3327 2.16663 23.906 2.16663 15.9993C2.16663 8.09268 8.59329 1.66602 16.5 1.66602C24.4066 1.66602 30.8333 8.09268 30.8333 15.9993C30.8333 23.906 24.4066 30.3327 16.5 30.3327ZM16.5 3.66602C9.69996 3.66602 4.16663 9.19935 4.16663 15.9993C4.16663 22.7993 9.69996 28.3327 16.5 28.3327C23.3 28.3327 28.8333 22.7993 28.8333 15.9993C28.8333 9.19935 23.3 3.66602 16.5 3.66602Z" fill="#8D55F9"/>
<path d="M14.6073 20.7735C14.3406 20.7735 14.0873 20.6668 13.9006 20.4801L10.1273 16.7068C9.74061 16.3201 9.74061 15.6801 10.1273 15.2935C10.5139 14.9068 11.1539 14.9068 11.5406 15.2935L14.6073 18.3601L21.4606 11.5068C21.8473 11.1201 22.4873 11.1201 22.8739 11.5068C23.2606 11.8935 23.2606 12.5335 22.8739 12.9201L15.3139 20.4801C15.1273 20.6668 14.8739 20.7735 14.6073 20.7735Z" fill="#8D55F9"/>
</svg>
