<svg width="33" height="32" viewBox="0 0 33 32" fill="none" xmlns="http://www.w3.org/2000/svg">
<path d="M16.5 30.3327C8.59329 30.3327 2.16663 23.906 2.16663 15.9993C2.16663 8.09268 8.59329 1.66602 16.5 1.66602C24.4066 1.66602 30.8333 8.09268 30.8333 15.9993C30.8333 23.906 24.4066 30.3327 16.5 30.3327ZM16.5 3.66602C9.69996 3.66602 4.16663 9.19935 4.16663 15.9993C4.16663 22.7993 9.69996 28.3327 16.5 28.3327C23.3 28.3327 28.8333 22.7993 28.8333 15.9993C28.8333 9.19935 23.3 3.66602 16.5 3.66602Z" fill="#E63C3C"/>
<path d="M12.7266 20.7738C12.4733 20.7738 12.22 20.6805 12.02 20.4805C11.6333 20.0938 11.6333 19.4538 12.02 19.0671L19.5666 11.5205C19.9533 11.1338 20.5933 11.1338 20.98 11.5205C21.3666 11.9071 21.3666 12.5471 20.98 12.9338L13.4333 20.4805C13.2466 20.6805 12.98 20.7738 12.7266 20.7738Z" fill="#E63C3C"/>
<path d="M20.2733 20.7738C20.02 20.7738 19.7666 20.6805 19.5666 20.4805L12.02 12.9338C11.6333 12.5471 11.6333 11.9071 12.02 11.5205C12.4066 11.1338 13.0466 11.1338 13.4333 11.5205L20.98 19.0671C21.3666 19.4538 21.3666 20.0938 20.98 20.4805C20.78 20.6805 20.5266 20.7738 20.2733 20.7738Z" fill="#E63C3C"/>
</svg>
