<svg width="32" height="32" viewBox="0 0 32 32" fill="none" xmlns="http://www.w3.org/2000/svg">
<path d="M4.66663 25C4.11996 25 3.66663 24.5467 3.66663 24V9.33332C3.66663 3.45332 5.45329 1.66666 11.3333 1.66666H20.6666C26.5466 1.66666 28.3333 3.45332 28.3333 9.33332V22.6667C28.3333 22.88 28.3333 23.08 28.32 23.2933C28.28 23.84 27.7866 24.2667 27.2533 24.2267C26.7066 24.1867 26.28 23.7067 26.32 23.16C26.3333 23 26.3333 22.8267 26.3333 22.6667V9.33332C26.3333 4.57332 25.44 3.66666 20.6666 3.66666H11.3333C6.55996 3.66666 5.66663 4.57332 5.66663 9.33332V24C5.66663 24.5467 5.21329 25 4.66663 25Z" fill="#7FA535"/>
<path d="M22.6666 30.3333H9.33329C6.21329 30.3333 3.66663 27.7867 3.66663 24.6667V23.8C3.66663 21.1467 5.82663 19 8.46663 19H27.3333C27.88 19 28.3333 19.4533 28.3333 20V24.6667C28.3333 27.7867 25.7866 30.3333 22.6666 30.3333ZM8.46663 21C6.91996 21 5.66663 22.2533 5.66663 23.8V24.6667C5.66663 26.6933 7.30663 28.3333 9.33329 28.3333H22.6666C24.6933 28.3333 26.3333 26.6933 26.3333 24.6667V21H8.46663Z" fill="#7FA535"/>
<path d="M21.3333 10.3333H10.6666C10.12 10.3333 9.66663 9.88001 9.66663 9.33334C9.66663 8.78668 10.12 8.33334 10.6666 8.33334H21.3333C21.88 8.33334 22.3333 8.78668 22.3333 9.33334C22.3333 9.88001 21.88 10.3333 21.3333 10.3333Z" fill="#7FA535"/>
<path d="M17.3333 15H10.6666C10.12 15 9.66663 14.5467 9.66663 14C9.66663 13.4533 10.12 13 10.6666 13H17.3333C17.88 13 18.3333 13.4533 18.3333 14C18.3333 14.5467 17.88 15 17.3333 15Z" fill="#7FA535"/>
</svg>
