<svg width="48" height="48" viewBox="0 0 48 48" fill="none" xmlns="http://www.w3.org/2000/svg">
<rect width="48" height="48" rx="24" fill="#F2EBFE"/>
<path d="M24 37.44C23.6 37.44 23.2 37.3467 22.8666 37.16C20.3733 35.8 15.9866 34.36 13.24 34L12.8533 33.9467C11.1066 33.7333 9.66663 32.0933 9.66663 30.32V14.2133C9.66663 13.16 10.08 12.2 10.84 11.5067C11.6 10.8133 12.5866 10.48 13.6266 10.5733C16.56 10.8 20.9866 12.2667 23.4933 13.84L23.8133 14.0267C23.9066 14.08 24.1066 14.08 24.1866 14.04L24.4 13.9067C26.9066 12.3333 31.3333 10.84 34.28 10.5867C34.3066 10.5867 34.4133 10.5867 34.44 10.5867C35.4133 10.4933 36.4133 10.84 37.16 11.5333C37.92 12.2267 38.3333 13.1867 38.3333 14.24V30.3333C38.3333 32.12 36.8933 33.7467 35.1333 33.96L34.6933 34.0133C31.9466 34.3733 27.5466 35.8267 25.1066 37.1733C24.7866 37.36 24.4 37.44 24 37.44ZM13.3066 12.56C12.88 12.56 12.4933 12.7067 12.1866 12.9867C11.8533 13.2933 11.6666 13.7333 11.6666 14.2133V30.32C11.6666 31.1067 12.3466 31.8667 13.1066 31.9733L13.5066 32.0267C16.5066 32.4267 21.1066 33.9333 23.7733 35.3867C23.8933 35.44 24.0666 35.4533 24.1333 35.4267C26.8 33.9467 31.4266 32.4267 34.44 32.0267L34.8933 31.9733C35.6533 31.88 36.3333 31.1067 36.3333 30.32V14.2267C36.3333 13.7333 36.1466 13.3067 35.8133 12.9867C35.4666 12.68 35.0266 12.5333 34.5333 12.56C34.5066 12.56 34.4 12.56 34.3733 12.56C31.8266 12.7867 27.72 14.16 25.48 15.56L25.2666 15.7067C24.5333 16.16 23.4933 16.16 22.7866 15.72L22.4666 15.5333C20.1866 14.1333 16.08 12.7733 13.4666 12.56C13.4133 12.56 13.36 12.56 13.3066 12.56Z" fill="#8D55F9"/>
<path d="M24 36.32C23.4533 36.32 23 35.8667 23 35.32V15.32C23 14.7733 23.4533 14.32 24 14.32C24.5467 14.32 25 14.7733 25 15.32V35.32C25 35.88 24.5467 36.32 24 36.32Z" fill="#8D55F9"/>
<path d="M18.3334 20.32H15.3334C14.7867 20.32 14.3334 19.8667 14.3334 19.32C14.3334 18.7733 14.7867 18.32 15.3334 18.32H18.3334C18.88 18.32 19.3334 18.7733 19.3334 19.32C19.3334 19.8667 18.88 20.32 18.3334 20.32Z" fill="#8D55F9"/>
<path d="M19.3334 24.32H15.3334C14.7867 24.32 14.3334 23.8667 14.3334 23.32C14.3334 22.7733 14.7867 22.32 15.3334 22.32H19.3334C19.88 22.32 20.3334 22.7733 20.3334 23.32C20.3334 23.8667 19.88 24.32 19.3334 24.32Z" fill="#8D55F9"/>
</svg>
