<svg width="32" height="32" viewBox="0 0 32 32" fill="none" xmlns="http://www.w3.org/2000/svg">
<path d="M4.6665 25.0003C4.11984 25.0003 3.6665 24.547 3.6665 24.0003V9.33366C3.6665 3.45366 5.45317 1.66699 11.3332 1.66699H20.6665C26.5465 1.66699 28.3332 3.45366 28.3332 9.33366V22.667C28.3332 22.8803 28.3332 23.0803 28.3198 23.2937C28.2798 23.8403 27.7865 24.267 27.2532 24.227C26.7065 24.187 26.2798 23.707 26.3198 23.1603C26.3332 23.0003 26.3332 22.827 26.3332 22.667V9.33366C26.3332 4.57366 25.4398 3.66699 20.6665 3.66699H11.3332C6.55984 3.66699 5.6665 4.57366 5.6665 9.33366V24.0003C5.6665 24.547 5.21317 25.0003 4.6665 25.0003Z" fill="#7FA535"/>
<path d="M22.6665 30.3333H9.33317C6.21317 30.3333 3.6665 27.7867 3.6665 24.6667V23.8C3.6665 21.1467 5.8265 19 8.4665 19H27.3332C27.8798 19 28.3332 19.4533 28.3332 20V24.6667C28.3332 27.7867 25.7865 30.3333 22.6665 30.3333ZM8.4665 21C6.91984 21 5.6665 22.2533 5.6665 23.8V24.6667C5.6665 26.6933 7.3065 28.3333 9.33317 28.3333H22.6665C24.6932 28.3333 26.3332 26.6933 26.3332 24.6667V21H8.4665Z" fill="#7FA535"/>
<path d="M21.3332 10.333H10.6665C10.1198 10.333 9.6665 9.87967 9.6665 9.33301C9.6665 8.78634 10.1198 8.33301 10.6665 8.33301H21.3332C21.8798 8.33301 22.3332 8.78634 22.3332 9.33301C22.3332 9.87967 21.8798 10.333 21.3332 10.333Z" fill="#7FA535"/>
<path d="M17.3332 15H10.6665C10.1198 15 9.6665 14.5467 9.6665 14C9.6665 13.4533 10.1198 13 10.6665 13H17.3332C17.8798 13 18.3332 13.4533 18.3332 14C18.3332 14.5467 17.8798 15 17.3332 15Z" fill="#7FA535"/>
</svg>
