<svg width="64" height="64" viewBox="0 0 64 64" fill="none" xmlns="http://www.w3.org/2000/svg">
<path d="M38.0266 0.83279C-9.18592 -8.21914 -11.7788 59.413 26.6127 63.6751C71.2258 68.9993 77.0119 7.21928 38.0266 0.83279Z" fill="#7A9AD8"/>
<path fill-rule="evenodd" clip-rule="evenodd" d="M26.692 17.5049C28.4733 17.4324 30.1623 17.3994 31.8381 17.2938C33.5205 17.1882 35.2029 17.0101 36.9909 16.8518C37.1756 18.1977 37.3933 19.6162 37.5648 21.0347C37.677 21.9781 37.7232 22.9348 37.8024 23.8782C37.8419 24.3862 38.0795 24.6897 38.6073 24.8283C39.1681 24.9668 39.6959 25.2176 40.2369 25.4287C42.7044 26.3985 44.3406 28.325 45.8119 30.3967C47.2106 32.3628 47.8637 34.5994 48.0353 37.0141C48.2002 39.2375 47.9627 41.3685 47.0786 43.427C46.5244 44.7201 45.6733 45.7889 44.5451 46.5872C41.8665 48.4939 39.0163 50.1038 35.7835 50.8295C33.7316 51.2913 31.627 51.6014 29.529 51.7663C26.1906 52.0368 23.1359 51.0934 20.4704 49.0547C19.9624 48.6655 19.5665 48.1047 19.2037 47.5637C18.788 46.9501 18.4779 46.2705 18.1019 45.624C16.9737 43.6645 16.5844 41.5401 16.6702 39.3035C16.7098 38.3138 16.591 37.3044 16.6966 36.3279C16.9407 34.0518 17.4025 31.8152 18.9794 30.0272C19.5731 29.3543 20.1801 28.6153 20.9389 28.1667C22.74 27.1045 24.4488 25.7717 26.7777 25.7717C27.3451 24.3862 26.8107 22.981 26.8569 21.6087C26.8965 20.2561 26.7448 18.8904 26.6788 17.4983L26.692 17.5049Z" fill="white"/>
<path fill-rule="evenodd" clip-rule="evenodd" d="M37.7363 26.8208C50.219 30.9773 46.7552 50.0312 30.5977 49.9916C16.5382 49.9586 15.0801 27.6059 27.5694 27.6323" fill="#90CBD3"/>
<path fill-rule="evenodd" clip-rule="evenodd" d="M34.6619 11.2438C35.3085 11.3494 36.3311 11.4681 37.3339 11.6858C38.5743 11.9497 39.1483 12.5765 39.1483 13.5332C39.1483 14.4305 38.3763 15.4135 37.3075 15.5916C35.2755 15.9281 33.2236 16.1656 31.1783 16.3965C29.4894 16.5879 27.8004 16.5747 26.1444 16.0996C25.4516 15.9017 24.4884 14.8461 24.429 14.1995C24.3696 13.4606 25.0096 12.5831 25.9596 12.3192C27.068 12.0157 28.2094 11.8178 29.3376 11.6133C29.905 11.5077 30.4856 11.4879 31.0662 11.4483C32.135 11.3758 33.2104 11.3164 34.6685 11.2306L34.6619 11.2438ZM31.0794 14.5822C33.0389 14.5756 34.972 14.4503 36.8457 13.8169C37.1162 13.7245 37.4329 13.6651 37.6374 13.4936C37.7957 13.3617 37.9145 13.0384 37.8617 12.8602C37.8155 12.6953 37.5121 12.5567 37.3009 12.5171C37.1162 12.4842 36.9051 12.6029 36.7071 12.6491C35.7835 12.8602 34.873 13.1241 33.9427 13.2561C33.0916 13.3748 32.2142 13.388 31.3499 13.3814C29.7862 13.3616 28.2226 13.2891 26.659 13.2297C26.4545 13.2231 26.2499 13.078 26.0586 13.1043C25.8871 13.1307 25.6561 13.2891 25.6165 13.4342C25.577 13.5728 25.7023 13.8829 25.8277 13.929C26.2433 14.094 26.6854 14.2457 27.1274 14.2919C28.4403 14.4173 29.7599 14.4898 31.0728 14.5888L31.0794 14.5822Z" fill="white"/>
<path fill-rule="evenodd" clip-rule="evenodd" d="M25.8408 24.6502C25.722 22.0375 25.6033 19.57 25.4845 17.0695C25.2734 16.931 25.0689 16.7924 24.8578 16.6671C23.7032 15.9875 23.3535 14.9253 23.525 13.6849C23.69 12.4842 24.5213 11.8376 25.6231 11.4748C27.9322 10.7094 30.3206 10.5247 32.7221 10.4587C34.4573 10.4125 36.2057 10.274 37.888 10.8612C38.2377 10.9799 38.594 11.1185 38.9107 11.3032C40.283 12.0883 40.6524 13.586 39.8211 14.9253C39.6892 15.1364 39.5507 15.3673 39.3593 15.5059C38.2971 16.2316 38.3169 17.3268 38.4027 18.4023C38.5148 19.8471 38.7325 21.2788 38.8513 22.7171C38.8975 23.2977 39.0954 23.5946 39.6562 23.7859C43.6676 25.1582 45.9965 28.2459 47.7713 31.868C49.1172 34.6192 49.5988 37.5353 49.2162 40.5438C48.7807 43.9284 47.349 46.805 44.2613 48.5731C42.3612 49.6617 40.4347 50.7108 38.4488 51.6344C37.4526 52.0963 36.3178 52.2942 35.2226 52.4789C33.1839 52.8352 31.1321 53.3234 29.0868 53.3432C25.6297 53.3696 22.3441 52.5383 19.6523 50.183C19.0783 49.6815 18.623 49.002 18.2272 48.3356C17.2309 46.6664 16.2215 44.9906 15.8916 43.0245C15.8058 42.4967 15.6871 41.9755 15.6343 41.4477C15.41 39.2639 15.3308 37.0603 15.6541 34.8897C15.9576 32.8312 16.6635 30.8981 17.9698 29.2091C19.0387 27.8302 20.378 26.8802 21.9218 26.0951C23.1424 25.4749 24.2904 24.7426 25.8408 24.6502ZM26.6919 17.505C26.7579 18.8971 26.9096 20.2562 26.87 21.6153C26.8304 22.9876 27.3582 24.3929 26.7909 25.7784C24.4619 25.7784 22.7465 27.1111 20.952 28.1733C20.1933 28.622 19.5863 29.3543 18.9925 30.0338C17.4157 31.8284 16.9538 34.0584 16.7097 36.3346C16.6041 37.3176 16.7229 38.3205 16.6833 39.3101C16.5976 41.5533 16.9868 43.6711 18.115 45.6306C18.4845 46.2706 18.8012 46.9567 19.2168 47.5703C19.5797 48.1113 19.9755 48.6721 20.4835 49.0614C23.149 51.1066 26.2037 52.0435 29.5421 51.773C31.6401 51.6014 33.7448 51.2979 35.7966 50.8361C39.0228 50.1038 41.8796 48.494 44.5582 46.5938C45.6798 45.7955 46.5375 44.7267 47.0917 43.4336C47.9758 41.3751 48.2067 39.2441 48.0484 37.0207C47.8702 34.606 47.2237 32.376 45.825 30.4033C44.3537 28.3317 42.7175 26.4051 40.25 25.4353C39.709 25.2242 39.1812 24.9735 38.6204 24.8349C38.086 24.703 37.8551 24.3995 37.8155 23.8849C37.7363 22.9348 37.6901 21.9848 37.578 21.0413C37.4064 19.6228 37.1953 18.2043 37.004 16.8584C35.216 17.0167 33.5336 17.1949 31.8512 17.3004C30.1688 17.406 28.4864 17.439 26.7051 17.5116L26.6919 17.505ZM34.6618 11.2438C33.2038 11.3296 32.1283 11.389 31.0595 11.4615C30.4855 11.5011 29.8983 11.5209 29.3309 11.6265C28.1961 11.831 27.0548 12.0289 25.953 12.3324C25.0029 12.5963 24.3629 13.4738 24.4223 14.2128C24.4751 14.8593 25.4449 15.915 26.1377 16.1129C27.7937 16.5879 29.4827 16.6011 31.1717 16.4098C33.2235 16.1788 35.2688 15.9413 37.3009 15.6049C38.3697 15.4267 39.1416 14.4437 39.1416 13.5464C39.1416 12.5897 38.5742 11.963 37.3272 11.6991C36.3244 11.488 35.3018 11.3626 34.6552 11.257L34.6618 11.2438Z" fill="#2A3E84"/>
<path fill-rule="evenodd" clip-rule="evenodd" d="M31.0794 14.5822C29.7599 14.4898 28.4469 14.4173 27.134 14.2853C26.692 14.2457 26.2499 14.094 25.8343 13.9224C25.7089 13.8697 25.5836 13.5662 25.6232 13.4276C25.6627 13.2825 25.8937 13.1241 26.0652 13.0977C26.2499 13.0648 26.4611 13.2099 26.6656 13.2231C28.2292 13.2825 29.7929 13.355 31.3565 13.3748C32.2208 13.388 33.0983 13.3748 33.9493 13.2495C34.8796 13.1175 35.7967 12.8536 36.7138 12.6425C36.9117 12.5963 37.1228 12.471 37.3075 12.5105C37.5187 12.5501 37.8156 12.6887 37.8683 12.8536C37.9211 13.0318 37.8024 13.355 37.644 13.487C37.4329 13.6651 37.1228 13.7179 36.8523 13.8103C34.9786 14.4436 33.0521 14.569 31.086 14.5756L31.0794 14.5822Z" fill="#2A3E84"/>
<path d="M25.0756 35.6946C27.1472 35.6946 27.1472 32.4881 25.0756 32.4881C23.0039 32.4881 23.0039 35.6946 25.0756 35.6946Z" fill="white"/>
<path d="M37.1426 45.2875C39.2143 45.2875 39.2143 42.0811 37.1426 42.0811C35.071 42.0811 35.071 45.2875 37.1426 45.2875Z" fill="white"/>
<path d="M36.9842 34.8963C40.0851 34.8963 40.0851 30.0866 36.9842 30.0866C33.8833 30.0866 33.8833 34.8963 36.9842 34.8963Z" fill="white"/>
<path d="M27.0087 45.69C29.5949 45.69 29.5949 41.6786 27.0087 41.6786C24.4224 41.6786 24.4224 45.69 27.0087 45.69Z" fill="white"/>
<path d="M31.9964 39.4486C33.5469 39.4486 33.5469 37.0405 31.9964 37.0405C30.446 37.0405 30.446 39.4486 31.9964 39.4486Z" fill="white"/>
<path d="M41.972 39.607C43.5225 39.607 43.5225 37.1989 41.972 37.1989C40.4216 37.1989 40.4216 39.607 41.972 39.607Z" fill="white"/>
<path d="M22.1792 39.9303C23.7296 39.9303 23.7296 37.5221 22.1792 37.5221C20.6287 37.5221 20.6287 39.9303 22.1792 39.9303Z" fill="white"/>
<path d="M30.7098 32.0923C32.2603 32.0923 32.2603 29.6842 30.7098 29.6842C29.1594 29.6842 29.1594 32.0923 30.7098 32.0923Z" fill="white"/>
<path d="M32.6363 47.9266C34.1868 47.9266 34.1868 45.5184 32.6363 45.5184C31.0859 45.5184 31.0859 47.9266 32.6363 47.9266Z" fill="white"/>
</svg>
