<svg width="32" height="33" viewBox="0 0 32 33" fill="none" xmlns="http://www.w3.org/2000/svg">
<path d="M26.1198 9.79271C26.6708 10.6568 27.1154 11.5973 27.4335 12.5965C27.8016 13.7516 28 14.9764 28 16.2402C28 19.5539 26.6569 22.5539 24.4849 24.7251C22.313 26.897 19.313 28.2402 16 28.2402C12.6863 28.2402 9.68626 26.897 7.51506 24.7251C5.34313 22.5532 4 19.5532 4 16.2402C4 12.9264 5.34313 9.92643 7.51506 7.75524C9.68699 5.5833 12.687 4.24017 16 4.24017C16.9552 4.24017 17.8927 4.35479 18.7987 4.57155C19.7311 4.79418 20.6157 5.12261 21.4379 5.54069C21.784 5.71629 21.9214 6.13951 21.7458 6.48558C21.5702 6.83165 21.1469 6.96905 20.8009 6.79344C20.0639 6.41798 19.2836 6.12776 18.4739 5.93378C17.6885 5.74568 16.8604 5.64649 16 5.64649C13.0749 5.64649 10.4262 6.83238 8.50918 8.74936C6.59221 10.6663 5.40632 13.3151 5.40632 16.2402C5.40632 19.1652 6.59221 21.814 8.50918 23.731C10.4262 25.648 13.0749 26.8339 16 26.8339C18.9251 26.8339 21.5738 25.648 23.4908 23.731C25.4078 21.814 26.5937 19.1652 26.5937 16.2402C26.5937 15.1109 26.4203 14.0286 26.0985 13.019C25.8508 12.2409 25.5143 11.501 25.1014 10.8103L16.4996 19.4121C16.2248 19.6869 15.7796 19.6869 15.5055 19.4121L10.5709 14.4775C10.2961 14.2027 10.2961 13.7574 10.5709 13.4834C10.8457 13.2086 11.291 13.2086 11.565 13.4834L16.0022 17.9206L26.266 7.65678C26.5408 7.38198 26.986 7.38198 27.2601 7.65678C27.5349 7.93158 27.5349 8.37684 27.2601 8.6509L26.1198 9.79124V9.79271Z" fill="#8D55F9"/>
</svg>
