<svg width="32" height="33" viewBox="0 0 32 33" fill="none" xmlns="http://www.w3.org/2000/svg">
<g clip-path="url(#clip0_3_1916)">
<path fill-rule="evenodd" clip-rule="evenodd" d="M15.4384 2.57025C8.22098 2.57025 2.35205 8.43767 2.35205 15.6551C2.35205 22.4428 7.5614 28.1169 14.3244 28.6948C14.4252 28.7031 14.5267 28.6914 14.6229 28.6604C14.7192 28.6294 14.8084 28.5797 14.8855 28.5143C14.9625 28.4488 15.0259 28.3688 15.0721 28.2788C15.1182 28.1888 15.1461 28.0906 15.1543 27.9898C15.1705 27.7874 15.1062 27.5869 14.9753 27.4317C14.8444 27.2766 14.6574 27.1795 14.4552 27.1615C8.47484 26.6504 3.89295 21.6573 3.89295 15.6551C3.89295 9.26962 9.05293 4.10965 15.4384 4.10965C19.2077 4.10965 22.6997 5.94229 24.8461 8.96234L23.0166 8.71731C22.9163 8.70423 22.8144 8.71104 22.7168 8.73736C22.6191 8.76368 22.5276 8.80899 22.4474 8.8707C22.3673 8.93241 22.3001 9.00931 22.2497 9.097C22.1993 9.1847 22.1667 9.28147 22.1537 9.38178C22.1268 9.58366 22.1809 9.78799 22.3044 9.95001C22.4278 10.112 22.6104 10.2185 22.8122 10.2462L26.5284 10.7453C26.6308 10.7591 26.735 10.7521 26.8347 10.7248C26.9344 10.6975 27.0276 10.6504 27.1087 10.5863C27.1898 10.5221 27.2571 10.4423 27.3067 10.3516C27.3563 10.2609 27.3871 10.1611 27.3973 10.0583L27.7611 6.35409C27.7708 6.2534 27.7606 6.15177 27.731 6.05502C27.7015 5.95827 27.6531 5.8683 27.5888 5.79025C27.5244 5.7122 27.4453 5.64761 27.3559 5.60016C27.2666 5.55272 27.1688 5.52335 27.068 5.51374C26.8656 5.494 26.6636 5.55517 26.5061 5.6839C26.3487 5.81263 26.2486 5.99845 26.2277 6.20076L26.0518 8.00022C23.6151 4.62056 19.6782 2.57025 15.4384 2.57025ZM15.0911 8.75188C14.9901 8.75227 14.89 8.77257 14.7968 8.81162C14.7036 8.85067 14.619 8.90769 14.5478 8.97945C14.4766 9.0512 14.4202 9.13627 14.3819 9.22981C14.3436 9.32334 14.3241 9.42351 14.3244 9.52458V16.8202C14.3241 16.9503 14.3567 17.0784 14.4193 17.1925C14.4818 17.3066 14.5723 17.403 14.6822 17.4726L18.2331 19.6885C18.4057 19.7956 18.6137 19.8301 18.8117 19.7845C19.0096 19.7388 19.1815 19.6168 19.2899 19.445C19.3439 19.3592 19.3804 19.2637 19.3974 19.1638C19.4143 19.064 19.4114 18.9617 19.3888 18.863C19.3662 18.7642 19.3243 18.6709 19.2655 18.5884C19.2067 18.5059 19.1323 18.4358 19.0464 18.3821L15.8638 16.3932V9.52458C15.8642 9.423 15.8445 9.32234 15.8058 9.22841C15.7671 9.13448 15.7102 9.04914 15.6384 8.97731C15.5666 8.90548 15.4812 8.84858 15.3873 8.80989C15.2934 8.7712 15.1927 8.75148 15.0911 8.75188ZM27.4153 12.0471C27.3577 12.0462 27.3003 12.0518 27.2439 12.0637C27.0452 12.108 26.8721 12.2291 26.7625 12.4007C26.6529 12.5723 26.6157 12.7803 26.6591 12.9792L26.7508 13.4167L26.829 13.8376L26.8861 14.2571L26.9041 14.4104C26.9143 14.5113 26.9442 14.6091 26.9923 14.6984C27.0404 14.7877 27.1056 14.8665 27.1842 14.9305C27.2629 14.9945 27.3534 15.0423 27.4506 15.0712C27.5478 15.1001 27.6497 15.1095 27.7505 15.0989C27.9532 15.0766 28.1387 14.9748 28.2664 14.8158C28.394 14.6569 28.4534 14.4538 28.4315 14.251L28.4149 14.0872C28.4149 14.0867 28.4149 14.0877 28.4149 14.0872C28.4149 14.0867 28.4149 14.0846 28.4149 14.0841C28.4149 14.0836 28.4149 14.0846 28.4149 14.0841C28.4149 14.0836 28.4149 14.0815 28.4149 14.081C28.4149 14.0805 28.4149 14.0815 28.4149 14.081C28.4149 14.0805 28.4149 14.0785 28.4149 14.0779C28.4149 14.0774 28.4149 14.0785 28.4149 14.0779C28.4149 14.0774 28.4149 14.0754 28.4149 14.0749C28.4149 14.0743 28.4149 14.0754 28.4149 14.0749C28.4149 14.0743 28.4149 14.0723 28.4149 14.0718C28.4149 14.0713 28.4149 14.0723 28.4149 14.0718C28.4149 14.0713 28.4149 14.0692 28.4149 14.0687C28.4149 14.0682 28.4149 14.0692 28.4149 14.0687C28.4149 14.0682 28.4149 14.0661 28.4149 14.0656C28.4149 14.0651 28.4149 14.0661 28.4149 14.0656C28.4149 14.0651 28.4149 14.0631 28.4149 14.0625C28.4149 14.062 28.4149 14.0631 28.4149 14.0625C28.4149 14.062 28.4149 14.06 28.4149 14.0595C28.4149 14.059 28.4149 14.06 28.4149 14.0595L28.3473 13.6084C28.3473 13.6079 28.3473 13.609 28.3473 13.6084C28.3473 13.6079 28.3473 13.6059 28.3473 13.6054C28.3473 13.6048 28.3473 13.6059 28.3473 13.6054C28.3473 13.6048 28.3473 13.6028 28.3473 13.6023C28.3473 13.6018 28.3473 13.6028 28.3473 13.6023C28.3473 13.6018 28.3473 13.5997 28.3473 13.5992C28.3473 13.5987 28.3473 13.5997 28.3473 13.5992C28.3473 13.5987 28.3473 13.5966 28.3473 13.5961C28.3473 13.5956 28.3473 13.5966 28.3473 13.5961C28.3473 13.5956 28.3473 13.5936 28.3473 13.593C28.3473 13.5925 28.3473 13.5936 28.3473 13.593C28.3473 13.5925 28.3473 13.5905 28.3473 13.59C28.3473 13.5895 28.3473 13.5905 28.3473 13.59C28.3473 13.5895 28.3473 13.5874 28.3473 13.5869C28.3473 13.5864 28.3473 13.5874 28.3473 13.5869C28.3473 13.5864 28.3473 13.5843 28.3473 13.5838C28.3473 13.5833 28.3473 13.5843 28.3473 13.5838C28.3473 13.5833 28.3473 13.5812 28.3473 13.5807C28.3473 13.5802 28.3473 13.5812 28.3473 13.5807L28.2676 13.1312C28.2657 13.1217 28.2637 13.1122 28.2614 13.1027L28.1592 12.6531C28.1224 12.4825 28.0287 12.3295 27.8935 12.2191C27.7583 12.1088 27.5898 12.049 27.4153 12.0471ZM27.5611 16.6368C27.3878 16.6496 27.2238 16.7208 27.0961 16.8388C26.9683 16.9567 26.8843 17.1144 26.8576 17.2862L26.8065 17.5989L26.7328 18.0078L26.6426 18.4107L26.5629 18.7113C26.5366 18.8092 26.5298 18.9112 26.543 19.0117C26.5562 19.1121 26.5891 19.209 26.6398 19.2967C26.6905 19.3844 26.758 19.4612 26.8384 19.5228C26.9189 19.5844 27.0107 19.6294 27.1086 19.6554C27.2068 19.6814 27.3091 19.6878 27.4097 19.6741C27.5102 19.6604 27.6071 19.627 27.6947 19.5757C27.7823 19.5244 27.8589 19.4563 27.9201 19.3753C27.9813 19.2943 28.0259 19.202 28.0512 19.1037L28.1309 18.791C28.1331 18.7835 28.1351 18.7759 28.1371 18.7683L28.2393 18.3369C28.2415 18.3274 28.2436 18.3179 28.2455 18.3084L28.3251 17.8709C28.3273 17.8634 28.3294 17.8558 28.3313 17.8482L28.3824 17.519C28.3973 17.419 28.3923 17.3171 28.3678 17.219C28.3433 17.1209 28.2998 17.0287 28.2396 16.9474C28.1794 16.8662 28.1038 16.7976 28.0172 16.7456C27.9305 16.6936 27.8344 16.6592 27.7344 16.6443C27.6778 16.6354 27.6184 16.6329 27.5611 16.6368ZM26.0698 20.9798C26.0195 20.9839 25.9696 20.993 25.921 21.0069C25.7257 21.0627 25.5603 21.1935 25.461 21.3707L25.4039 21.4729L25.1874 21.8307L24.9604 22.178L24.7169 22.5192L24.6823 22.5643C24.6207 22.6445 24.5755 22.736 24.5493 22.8336C24.523 22.9312 24.5163 23.033 24.5294 23.1333C24.5425 23.2335 24.5753 23.3302 24.6257 23.4178C24.6762 23.5053 24.7435 23.5821 24.8236 23.6437C24.9038 23.7053 24.9953 23.7505 25.0929 23.7767C25.1905 23.803 25.2924 23.8097 25.3926 23.7966C25.4928 23.7835 25.5895 23.7507 25.6771 23.7003C25.7646 23.6498 25.8414 23.5825 25.903 23.5024L25.9497 23.4452C25.9553 23.4378 25.9608 23.4302 25.9662 23.4226L26.2218 23.0587C26.2279 23.0513 26.2339 23.0437 26.2398 23.0361L26.4833 22.6662C26.4874 22.6587 26.4915 22.6512 26.4953 22.6436L26.7283 22.2632C26.732 22.2557 26.7355 22.2481 26.7389 22.2405L26.802 22.1203C26.9008 21.9423 26.9251 21.7325 26.8696 21.5367C26.8141 21.3409 26.6833 21.1751 26.5058 21.0755C26.3732 21.001 26.2215 20.9681 26.0698 20.9798ZM23.2271 24.4781C23.0286 24.4613 22.8314 24.5238 22.6769 24.6495L22.3356 24.911L21.9432 25.1891L21.5464 25.4507L21.5118 25.4734C21.4247 25.5251 21.3487 25.5935 21.2881 25.6747C21.2275 25.7558 21.1835 25.8481 21.1587 25.9463C21.1338 26.0445 21.1286 26.1466 21.1432 26.2468C21.1579 26.347 21.1922 26.4433 21.2442 26.5303C21.3486 26.7045 21.5177 26.8304 21.7145 26.8805C21.9113 26.9306 22.12 26.9009 22.295 26.7978L22.3461 26.7693C22.3558 26.7635 22.3653 26.7575 22.3747 26.7513L22.8017 26.4732C22.8114 26.4658 22.8209 26.4583 22.8302 26.4505L23.2451 26.1543C23.2528 26.1489 23.2603 26.1434 23.2677 26.1377L23.6315 25.8536C23.6391 25.8482 23.6466 25.8427 23.654 25.837C23.7317 25.7721 23.7958 25.6925 23.8427 25.6028C23.8896 25.5131 23.9183 25.4151 23.9273 25.3143C23.9362 25.2134 23.9252 25.1119 23.8948 25.0153C23.8644 24.9188 23.8153 24.8292 23.7502 24.7516C23.6853 24.6738 23.6057 24.6096 23.5159 24.5627C23.4262 24.5157 23.328 24.487 23.2271 24.4781ZM19.0614 26.6413C19.0043 26.6451 18.9479 26.6551 18.893 26.6714L18.5172 26.7857L18.0571 26.9044L17.5971 27.0021L17.4889 27.0187C17.3886 27.0354 17.2926 27.0719 17.2065 27.1259C17.1203 27.18 17.0457 27.2505 16.987 27.3336C16.9283 27.4166 16.8866 27.5104 16.8644 27.6097C16.8422 27.7089 16.8398 27.8115 16.8575 27.9117C16.8931 28.1117 17.0063 28.2895 17.1725 28.4063C17.3386 28.5232 17.5442 28.5696 17.7445 28.5356L17.8692 28.519C17.8788 28.5171 17.8883 28.5151 17.8978 28.5129L18.3924 28.4046C18.404 28.4028 18.4155 28.4008 18.427 28.3985L18.9155 28.2737C18.9251 28.2704 18.9346 28.2669 18.9441 28.2633L19.3304 28.149C19.4276 28.1201 19.5181 28.0723 19.5967 28.0083C19.6753 27.9443 19.7405 27.8655 19.7885 27.7762C19.8366 27.687 19.8665 27.5891 19.8766 27.4883C19.8868 27.3875 19.8769 27.2856 19.8476 27.1886C19.7976 27.0219 19.6927 26.8771 19.5499 26.7778C19.4072 26.6784 19.235 26.6303 19.0614 26.6413Z" fill="#CC9619"/>
</g>
<defs>
<clipPath id="clip0_3_1916">
<rect width="32" height="32" fill="white" transform="translate(0 0.240173)"/>
</clipPath>
</defs>
</svg>
