<svg width="25" height="24" viewBox="0 0 25 24" fill="none" xmlns="http://www.w3.org/2000/svg">
<g id="Vector">
<path d="M24.5166 9.6498H23.55V9.6H12.75V14.4H19.5318C18.5424 17.1942 15.8838 19.2 12.75 19.2C8.7738 19.2 5.55 15.9762 5.55 12C5.55 8.0238 8.7738 4.8 12.75 4.8C14.5854 4.8 16.2552 5.4924 17.5266 6.6234L20.9208 3.2292C18.7776 1.2318 15.9108 0 12.75 0C6.123 0 0.75 5.373 0.75 12C0.75 18.627 6.123 24 12.75 24C19.377 24 24.75 18.627 24.75 12C24.75 11.1954 24.6672 10.41 24.5166 9.6498Z" fill="#FFC107"/>
<path d="M2.25 6.20368L6.18479 9C7.24948 6.44565 9.82796 4.64217 12.8454 4.64217C14.6771 4.64217 16.3436 5.3118 17.6125 6.40561L21 3.12302C18.861 1.1913 15.9999 0 12.8454 0C8.2453 0 4.25602 2.51663 2.25 6.20368Z" fill="#FF3D00"/>
<path d="M12.9453 24C16.0485 24 18.8681 22.7912 21 20.8254L17.2817 17.6227C16.035 18.5878 14.5116 19.1098 12.9453 19.1085C9.82052 19.1085 7.16726 17.0803 6.16771 14.25L2.25 17.3225C4.23829 21.2828 8.27614 24 12.9453 24Z" fill="#4CAF50"/>
<path d="M24.5166 9.79959H23.55V9.75H12.75V14.5301H19.5318C19.0585 15.8544 18.206 17.0116 17.0796 17.8588L17.0814 17.8576L20.7954 20.9873C20.5326 21.2251 24.75 18.1151 24.75 12.14C24.75 11.3388 24.6672 10.5566 24.5166 9.79959Z" fill="#1976D2"/>
</g>
</svg>
