<svg width="24" height="24" viewBox="0 0 24 24" fill="none" xmlns="http://www.w3.org/2000/svg">
<path opacity="0.52" fill-rule="evenodd" clip-rule="evenodd" d="M20.6246 5.32343C20.1927 4.95771 19.7014 4.544 19.116 4.024C18.8507 3.81829 18.5604 3.58286 18.2522 3.33371C16.5152 1.92686 14.1357 0 11.9667 0C9.82275 0 7.59665 1.81943 5.80844 3.28114C5.47768 3.55086 5.16834 3.80457 4.85305 4.05029C4.29862 4.544 3.80725 4.95886 3.37418 5.32571C0.534205 7.72686 0 8.35657 0 13.9577C0 24 3.02319 24 12 24C20.9756 24 24 24 24 13.9577C24 8.35543 23.4658 7.72571 20.6246 5.32343Z" fill="#8D55F9"/>
<path d="M8.54076 17.5824H15.4593C15.9518 17.5824 16.3516 17.1984 16.3516 16.7253C16.3516 16.2522 15.9518 15.8682 15.4593 15.8682H8.54076C8.0482 15.8682 7.64844 16.2522 7.64844 16.7253C7.64844 17.1984 8.0482 17.5824 8.54076 17.5824Z" fill="#8D55F9"/>
</svg>
