<svg width="23" height="23" viewBox="0 0 23 23" fill="none" xmlns="http://www.w3.org/2000/svg">
<rect x="0.800003" y="0.240173" width="22" height="22" rx="11" fill="white"/>
<path d="M8.52803 15.2402V9.09617L6.65603 10.1762L6.10403 8.98817L8.73203 7.32017H10.16V15.2402H8.52803ZM15.004 15.3722C14.708 15.3722 14.396 15.3562 14.068 15.3242C13.748 15.2922 13.44 15.2522 13.144 15.2042C12.856 15.1482 12.616 15.1002 12.424 15.0602L12.496 13.7762C12.688 13.8002 12.916 13.8282 13.18 13.8602C13.452 13.8922 13.728 13.9202 14.008 13.9442C14.296 13.9602 14.56 13.9682 14.8 13.9682C15.256 13.9682 15.596 13.8842 15.82 13.7162C16.044 13.5482 16.156 13.2762 16.156 12.9002C16.156 12.6442 16.104 12.4442 16 12.3002C15.904 12.1482 15.76 12.0362 15.568 11.9642C15.384 11.8922 15.168 11.8522 14.92 11.8442H13.288V10.5242H14.884C15.068 10.5242 15.244 10.4842 15.412 10.4042C15.588 10.3242 15.728 10.2082 15.832 10.0562C15.944 9.90417 16 9.72017 16 9.50417C16 9.16817 15.896 8.93217 15.688 8.79617C15.488 8.65217 15.16 8.58017 14.704 8.58017C14.464 8.58017 14.212 8.59217 13.948 8.61617C13.684 8.64017 13.432 8.66817 13.192 8.70017C12.952 8.72417 12.752 8.75217 12.592 8.78417L12.52 7.52417C12.696 7.47617 12.912 7.42817 13.168 7.38017C13.424 7.32417 13.696 7.28017 13.984 7.24817C14.272 7.20817 14.544 7.18817 14.8 7.18817C15.48 7.18817 16.028 7.26017 16.444 7.40417C16.868 7.54017 17.176 7.76817 17.368 8.08817C17.56 8.40017 17.656 8.81217 17.656 9.32417C17.656 9.60417 17.62 9.84017 17.548 10.0322C17.484 10.2242 17.396 10.3882 17.284 10.5242C17.18 10.6602 17.072 10.7722 16.96 10.8602C16.848 10.9402 16.744 11.0122 16.648 11.0762C16.888 11.1882 17.096 11.3122 17.272 11.4482C17.448 11.5842 17.584 11.7642 17.68 11.9882C17.776 12.2122 17.824 12.5122 17.824 12.8882C17.824 13.4882 17.72 13.9722 17.512 14.3402C17.304 14.7002 16.992 14.9642 16.576 15.1322C16.16 15.2922 15.636 15.3722 15.004 15.3722Z" fill="#A3A3A3"/>
</svg>
