<svg width="32" height="33" viewBox="0 0 32 33" fill="none" xmlns="http://www.w3.org/2000/svg">
<path d="M16.0914 4.53735C10.7977 4.53735 6.49144 8.84363 6.49144 14.1373C6.49144 18.0354 10.5303 21.512 10.7022 21.6583C11.3701 22.2256 11.9346 23.4457 11.9346 24.3225V27.8516C11.9346 29.112 12.96 30.1373 14.2203 30.1373H17.963C19.2233 30.1373 20.2487 29.112 20.2487 27.8516V24.3225C20.2487 23.4461 20.8128 22.226 21.4811 21.6583C21.6526 21.512 25.6914 18.0354 25.6914 14.1373C25.6914 8.84363 21.3851 4.53735 16.0914 4.53735ZM19.3339 26.9373H12.8489V25.5659H19.3344V26.9373H19.3339ZM17.9625 29.2231H14.2199C13.4638 29.2231 12.8485 28.6077 12.8485 27.8516H19.3339C19.3339 28.6077 18.7191 29.2231 17.9625 29.2231ZM20.8887 20.9616C20.0169 21.7021 19.3339 23.1787 19.3339 24.3225V24.6516H12.8489V24.3225C12.8489 23.1787 12.1659 21.7021 11.2942 20.9616C11.2553 20.9282 7.40572 17.6171 7.40572 14.1373C7.40572 9.34786 11.3019 5.45163 16.0914 5.45163C20.8809 5.45163 24.7771 9.34786 24.7771 14.1373C24.7771 17.6103 20.9275 20.9287 20.8887 20.9616ZM16.0914 6.32797C12.0375 6.32797 8.73921 9.6258 8.73921 13.6802C8.73921 17.7346 12.0375 21.0324 16.0914 21.0324C20.1454 21.0324 23.4437 17.7341 23.4437 13.6802C23.4437 9.62626 20.1458 6.32797 16.0914 6.32797ZM16.0914 20.1181C12.5417 20.1181 9.65349 17.2304 9.65349 13.6802C9.65349 10.13 12.5417 7.24226 16.0914 7.24226C19.6411 7.24226 22.5294 10.1305 22.5294 13.6802C22.5294 17.2299 19.6416 20.1181 16.0914 20.1181ZM20.5568 11.2299L15.9854 16.7156C15.8985 16.8199 15.7701 16.8802 15.6343 16.8802C15.4985 16.8802 15.3701 16.8199 15.2832 16.7156L12.9975 13.9728C12.8357 13.7789 12.8622 13.4905 13.056 13.3291C13.2498 13.1673 13.5378 13.1933 13.6997 13.3876L15.6343 15.709L19.8546 10.6448C20.0165 10.4509 20.3045 10.4249 20.4983 10.5863C20.6921 10.7476 20.7186 11.0361 20.5568 11.2299ZM25.8254 7.6034C25.6466 7.42466 25.6466 7.13575 25.8254 6.957L28.1111 4.67129C28.2898 4.49255 28.5787 4.49255 28.7575 4.67129C28.9362 4.85003 28.9362 5.13895 28.7575 5.31769L26.4718 7.6034C26.3826 7.69255 26.2656 7.73735 26.1486 7.73735C26.0315 7.73735 25.9145 7.69255 25.8254 7.6034ZM3.42538 5.31769C3.24664 5.13895 3.24664 4.85003 3.42538 4.67129C3.60412 4.49255 3.89303 4.49255 4.07178 4.67129L6.35749 6.957C6.53623 7.13575 6.53623 7.42466 6.35749 7.6034C6.26835 7.69255 6.15132 7.73735 6.03429 7.73735C5.91726 7.73735 5.80024 7.69255 5.71109 7.6034L3.42538 5.31769ZM6.35749 18.8427C6.53623 19.0215 6.53623 19.3104 6.35749 19.4891L4.07178 21.7748C3.98263 21.864 3.86561 21.9088 3.74858 21.9088C3.63155 21.9088 3.51452 21.864 3.42538 21.7748C3.24664 21.5961 3.24664 21.3072 3.42538 21.1284L5.71109 18.8427C5.88984 18.664 6.17875 18.664 6.35749 18.8427ZM28.7575 21.1284C28.9362 21.3072 28.9362 21.5961 28.7575 21.7748C28.6683 21.864 28.5513 21.9088 28.4343 21.9088C28.3173 21.9088 28.2002 21.864 28.1111 21.7748L25.8254 19.4891C25.6466 19.3104 25.6466 19.0215 25.8254 18.8427C26.0041 18.664 26.293 18.664 26.4718 18.8427L28.7575 21.1284ZM28.8914 13.6802C28.8914 13.9325 28.6866 14.1373 28.4343 14.1373H27.52C27.2677 14.1373 27.0629 13.9325 27.0629 13.6802C27.0629 13.4279 27.2677 13.2231 27.52 13.2231H28.4343C28.6866 13.2231 28.8914 13.4279 28.8914 13.6802ZM4.66286 13.2231C4.91521 13.2231 5.12001 13.4279 5.12001 13.6802C5.12001 13.9325 4.91521 14.1373 4.66286 14.1373H3.74858C3.49623 14.1373 3.29143 13.9325 3.29143 13.6802C3.29143 13.4279 3.49623 13.2231 3.74858 13.2231H4.66286Z" fill="#29B1CC"/>
</svg>
