<svg width="24" height="24" viewBox="0 0 24 24" fill="none" xmlns="http://www.w3.org/2000/svg">
<path opacity="0.4" fill-rule="evenodd" clip-rule="evenodd" d="M0.150071 6.58462C0.0575845 7.96308 0.0115608 9.41551 0 10.9294V12.7755C0.0115608 14.2647 0.0691453 15.8154 0.150071 17.4154V17.44C0.577822 22.4 2.69345 24 8.82069 24C17.6069 24 17.6069 20.4923 17.6069 12C17.6069 3.50768 17.6069 0 8.82069 0C2.69345 0 0.577822 1.6 0.150071 6.58462Z" fill="#E63C3C"/>
<path fill-rule="evenodd" clip-rule="evenodd" d="M21.0448 11.0766L19.1453 9.05934C18.9754 8.87965 18.8898 8.64211 18.8898 8.4058C18.8898 8.17073 18.9754 7.93442 19.143 7.75473C19.4818 7.39288 20.0309 7.39288 20.3696 7.75226L23.7546 11.3461C24.0818 11.692 24.0818 12.3074 23.7546 12.6532L20.3696 16.2471C20.0309 16.6064 19.4818 16.6064 19.143 16.2446C18.8054 15.8828 18.8054 15.2994 19.1453 14.94L21.0448 12.9228H9.21015C8.73422 12.9228 8.35205 12.4975 8.35205 11.9908C8.35205 11.4839 8.73465 11.0766 9.21085 11.0766H21.0448Z" fill="#E63C3C"/>
</svg>
