<svg width="32" height="33" viewBox="0 0 32 33" fill="none" xmlns="http://www.w3.org/2000/svg">
<path d="M3.16501 21.8224C3.74661 25.312 6.48096 28.05 9.96901 28.6264C13.969 29.2931 18.0228 29.2931 22.0263 28.6264C25.5159 28.0448 28.2486 25.3105 28.8303 21.8175C29.1585 19.8314 29.3286 17.8037 29.3286 15.7913C29.3286 13.7775 29.1602 11.7514 28.8303 9.7651C28.2487 6.2755 25.5144 3.53754 22.0263 2.9611C20.0402 2.63297 18.0125 2.46283 16.0001 2.46283C13.9863 2.46283 11.955 2.63123 9.9739 2.9611C6.4843 3.5427 3.75168 6.27705 3.1699 9.76999C2.84177 11.7561 2.67163 13.7839 2.67163 15.7962C2.67163 17.8101 2.84004 19.8361 3.1699 21.8224H3.16501ZM5.1251 9.21487C5.85425 6.84683 7.82647 5.12114 10.2673 4.71665C14.0191 4.0899 17.9878 4.0899 21.738 4.71665C24.4811 5.17496 26.6269 7.32083 27.0851 10.0638C27.4011 11.9527 27.5608 13.8815 27.5608 15.7962C27.5608 16.699 27.5209 17.6313 27.4497 18.574L27.2934 20.4941L21.8263 15.027C20.5815 13.7822 18.5589 13.7023 17.2223 14.8499L14.4133 17.2597C13.8404 17.7527 12.9636 17.7215 12.4307 17.1833L4.97245 9.72504L5.1287 9.21464L5.1251 9.21487ZM4.50185 13.8762L4.60775 11.8901L11.1633 18.4456C12.3543 19.6331 14.2831 19.7078 15.5591 18.614L18.3716 16.2043C19.007 15.6574 19.9671 15.6974 20.5626 16.2894L26.8422 22.5689L26.5887 23.1297C25.6946 25.121 23.8769 26.5203 21.726 26.8814C19.8371 27.1974 17.9083 27.3571 15.9936 27.3571C14.0788 27.3571 12.1446 27.1974 10.2558 26.8814C7.51273 26.4231 5.36691 24.2772 4.90868 21.5343C4.59271 19.6454 4.433 17.7166 4.433 15.8019C4.433 15.2289 4.45036 14.6195 4.49029 13.8817L4.50185 13.8762Z" fill="#7FA535"/>
</svg>
