<svg width="24" height="24" viewBox="0 0 24 24" fill="none" xmlns="http://www.w3.org/2000/svg">
<path d="M11.146 3.023C11.526 2.34 11.716 2 12 2C12.284 2 12.474 2.34 12.854 3.023L12.952 3.199C13.06 3.393 13.114 3.489 13.198 3.553C13.283 3.617 13.388 3.641 13.598 3.688L13.788 3.732C14.526 3.899 14.895 3.982 14.983 4.264C15.071 4.546 14.819 4.841 14.316 5.429L14.186 5.581C14.043 5.748 13.971 5.831 13.939 5.935C13.907 6.039 13.918 6.15 13.939 6.373L13.959 6.576C14.035 7.361 14.073 7.754 13.844 7.928C13.614 8.103 13.268 7.943 12.577 7.625L12.399 7.543C12.202 7.453 12.104 7.407 12 7.407C11.896 7.407 11.798 7.453 11.601 7.543L11.423 7.625C10.732 7.943 10.386 8.103 10.156 7.928C9.926 7.754 9.965 7.361 10.041 6.576L10.061 6.373C10.082 6.15 10.093 6.039 10.061 5.935C10.029 5.831 9.957 5.748 9.814 5.581L9.684 5.429C9.181 4.841 8.929 4.547 9.017 4.264C9.105 3.982 9.474 3.899 10.212 3.732L10.402 3.688C10.612 3.641 10.717 3.618 10.802 3.553C10.886 3.489 10.94 3.393 11.048 3.199L11.146 3.023ZM13 10H11C9.586 10 8.879 10 8.44 10.44C8 10.878 8 11.585 8 13V22H16V13C16 11.586 16 10.879 15.56 10.44C15.122 10 14.415 10 13 10Z" fill="#8D55F9"/>
<path opacity="0.5" d="M7.56 19.44C7.122 19 6.415 19 5 19C3.585 19 2.879 19 2.44 19.44C2 19.878 2 20.585 2 22H8C8 20.586 8 19.879 7.56 19.44ZM16 19V22H22V19C22 17.586 22 16.879 21.56 16.44C21.122 16 20.415 16 19 16C17.585 16 16.879 16 16.44 16.44C16 16.878 16 17.585 16 19Z" fill="#8D55F9"/>
</svg>
