<svg width="22" height="23" viewBox="0 0 22 23" fill="none" xmlns="http://www.w3.org/2000/svg">
<path d="M11 21.0943C5.56417 21.0943 1.14583 16.676 1.14583 11.2402C1.14583 5.80432 5.56417 1.38599 11 1.38599C16.4358 1.38599 20.8542 5.80432 20.8542 11.2402C20.8542 16.676 16.4358 21.0943 11 21.0943ZM11 2.76099C6.325 2.76099 2.52083 6.56515 2.52083 11.2402C2.52083 15.9152 6.325 19.7193 11 19.7193C15.675 19.7193 19.4792 15.9152 19.4792 11.2402C19.4792 6.56515 15.675 2.76099 11 2.76099Z" fill="#2EA254"/>
<path d="M9.69873 14.5219C9.5154 14.5219 9.34123 14.4486 9.2129 14.3203L6.61873 11.7261C6.3529 11.4603 6.3529 11.0203 6.61873 10.7544C6.88456 10.4886 7.32456 10.4886 7.5904 10.7544L9.69873 12.8628L14.4104 8.1511C14.6762 7.88526 15.1162 7.88526 15.3821 8.1511C15.6479 8.41693 15.6479 8.85693 15.3821 9.12276L10.1846 14.3203C10.0562 14.4486 9.88206 14.5219 9.69873 14.5219Z" fill="#2EA254"/>
</svg>
