<svg width="24" height="24" viewBox="0 0 24 24" fill="none" xmlns="http://www.w3.org/2000/svg">
<path d="M18.0526 12.4735C19.1572 12.4735 20.0759 13.3809 19.8191 14.4552C19.5856 15.4326 19.1798 16.3662 18.6157 17.2104C17.6788 18.6126 16.3472 19.7054 14.7892 20.3508C13.2312 20.9961 11.5169 21.1649 9.86292 20.836C8.20897 20.507 6.68973 19.6949 5.4973 18.5025C4.30488 17.3101 3.49282 15.7908 3.16383 14.1369C2.83484 12.4829 3.00369 10.7686 3.64903 9.21059C4.29437 7.65261 5.38721 6.32098 6.78935 5.3841C7.63362 4.81997 8.5672 4.41422 9.54458 4.18065C10.6189 3.92391 11.5263 4.84258 11.5263 5.94715V10.4735C11.5263 11.578 12.4218 12.4735 13.5263 12.4735H18.0526Z" fill="white" fill-opacity="0.5"/>
<path d="M19.2698 12.4734C19.7021 12.4734 20.0564 12.8247 20.0167 13.2552C19.8869 14.6656 19.4071 16.0259 18.6157 17.2104C17.6788 18.6125 16.3472 19.7054 14.7892 20.3507C13.2312 20.996 11.5169 21.1649 9.86292 20.8359C8.20897 20.5069 6.68973 19.6949 5.4973 18.5024C4.30488 17.31 3.49282 15.7908 3.16383 14.1368C2.83484 12.4829 3.00369 10.7685 3.64903 9.21054C4.29437 7.65256 5.38721 6.32093 6.78935 5.38405C7.97385 4.59259 9.33414 4.11287 10.7445 3.98301C11.1751 3.94337 11.5263 4.2976 11.5263 4.72996C11.5263 5.16232 11.1747 5.50827 10.7451 5.55679C9.64485 5.68106 8.58611 6.06656 7.65922 6.68589C6.51455 7.45073 5.62239 8.53783 5.09556 9.80971C4.56873 11.0816 4.43089 12.4811 4.69946 13.8314C4.96804 15.1816 5.63097 16.4219 6.60443 17.3953C7.57789 18.3688 8.81815 19.0317 10.1684 19.3003C11.5186 19.5689 12.9181 19.431 14.19 18.9042C15.4619 18.3773 16.549 17.4852 17.3138 16.3405C17.9332 15.4136 18.3187 14.3549 18.4429 13.2546C18.4915 12.825 18.8374 12.4734 19.2698 12.4734Z" fill="white"/>
<path d="M12.9608 5.01803C13.0434 3.91655 14.0169 3.06827 15.0691 3.40462C16.342 3.81155 17.5107 4.51504 18.4734 5.46865C19.436 6.42226 20.1505 7.58428 20.5695 8.8533C20.9157 9.90219 20.0767 10.8837 18.9761 10.9767L14.8111 11.3286C13.5845 11.4322 12.5563 10.4137 12.6483 9.18615L12.9608 5.01803Z" fill="white"/>
</svg>
