<svg width="24" height="24" viewBox="0 0 24 24" fill="none" xmlns="http://www.w3.org/2000/svg">
<path d="M18.0526 12.4737C19.1572 12.4737 20.0759 13.3811 19.8191 14.4554C19.5856 15.4328 19.1798 16.3664 18.6157 17.2106C17.6788 18.6128 16.3472 19.7056 14.7892 20.351C13.2312 20.9963 11.5169 21.1651 9.86292 20.8362C8.20897 20.5072 6.68973 19.6951 5.4973 18.5027C4.30488 17.3103 3.49282 15.791 3.16383 14.1371C2.83484 12.4831 3.00369 10.7688 3.64903 9.21079C4.29437 7.65281 5.38721 6.32118 6.78935 5.38429C7.63362 4.82017 8.5672 4.41442 9.54458 4.18085C10.6189 3.92411 11.5263 4.84278 11.5263 5.94735V10.4737C11.5263 11.5782 12.4218 12.4737 13.5263 12.4737H18.0526Z" fill="#712BF8" fill-opacity="0.12"/>
<path d="M19.2698 12.4737C19.7021 12.4737 20.0564 12.8249 20.0167 13.2555C19.8869 14.6659 19.4071 16.0261 18.6157 17.2106C17.6788 18.6128 16.3472 19.7056 14.7892 20.351C13.2312 20.9963 11.5169 21.1652 9.86292 20.8362C8.20897 20.5072 6.68973 19.6951 5.4973 18.5027C4.30488 17.3103 3.49282 15.791 3.16383 14.1371C2.83484 12.4831 3.00369 10.7688 3.64903 9.2108C4.29437 7.65282 5.38721 6.32119 6.78935 5.38431C7.97385 4.59285 9.33414 4.11313 10.7445 3.98327C11.1751 3.94363 11.5263 4.29786 11.5263 4.73022C11.5263 5.16258 11.1747 5.50853 10.7451 5.55705C9.64485 5.68132 8.58611 6.06682 7.65922 6.68615C6.51455 7.45099 5.62239 8.53809 5.09556 9.80997C4.56873 11.0819 4.43089 12.4814 4.69946 13.8316C4.96804 15.1818 5.63097 16.4221 6.60443 17.3956C7.57789 18.369 8.81815 19.032 10.1684 19.3005C11.5186 19.5691 12.9181 19.4313 14.19 18.9044C15.4619 18.3776 16.549 17.4854 17.3138 16.3408C17.9332 15.4139 18.3187 14.3551 18.4429 13.2549C18.4915 12.8253 18.8374 12.4737 19.2698 12.4737Z" fill="#8D55F9"/>
<path d="M12.9615 5.01826C13.0441 3.91678 14.0177 3.0685 15.0698 3.40485C16.3427 3.81178 17.5114 4.51527 18.4741 5.46888C19.4368 6.42249 20.1513 7.58451 20.5702 8.85353C20.9165 9.90242 20.0774 10.884 18.9768 10.977L14.8118 11.3288C13.5852 11.4324 12.557 10.4139 12.649 9.18638L12.9615 5.01826Z" fill="#8D55F9"/>
</svg>
