<svg width="20" height="19" viewBox="0 0 20 19" fill="none" xmlns="http://www.w3.org/2000/svg">
<path opacity="0.4" fill-rule="evenodd" clip-rule="evenodd" d="M15.3771 12.459C13.513 12.459 11.9968 10.9428 11.9968 9.07973C11.9968 7.21562 13.513 5.69845 15.3771 5.69845H19.6726C18.7768 1.5621 15.9271 0 10.0001 0C2.6171 0 0 2.41406 0 9.22257C0 16.0321 2.6171 18.4452 10.0001 18.4452C16.0628 18.4452 18.9074 16.8127 19.7318 12.459H15.3771Z" fill="white"/>
<path fill-rule="evenodd" clip-rule="evenodd" d="M9.64211 5.79512H5.49961C5.0772 5.79512 4.73438 5.45229 4.73438 5.02988C4.73438 4.60747 5.0772 4.26465 5.49961 4.26465H9.64211C10.0645 4.26465 10.4073 4.60747 10.4073 5.02988C10.4073 5.45229 10.0645 5.79512 9.64211 5.79512Z" fill="white"/>
<path fill-rule="evenodd" clip-rule="evenodd" d="M15.3772 10.9282C14.3579 10.9282 13.5273 10.0987 13.5273 9.07936C13.5273 8.05905 14.3579 7.22852 15.3772 7.22852H19.9033C19.9635 7.84989 19.9992 8.50595 19.9992 9.22221C19.9992 9.82929 19.9706 10.3894 19.9278 10.9282H15.3772ZM16.2854 9.01804C16.2854 9.44045 15.9425 9.78328 15.5201 9.78328C15.0977 9.78328 14.7549 9.44045 14.7549 9.01804C14.7549 8.59563 15.0977 8.25281 15.5201 8.25281C15.9425 8.25281 16.2854 8.59563 16.2854 9.01804Z" fill="white"/>
</svg>
