<svg width="24" height="24" viewBox="0 0 24 24" fill="none" xmlns="http://www.w3.org/2000/svg">
<path opacity="0.4" fill-rule="evenodd" clip-rule="evenodd" d="M17.3771 15.459C15.513 15.459 13.9968 13.9428 13.9968 12.0797C13.9968 10.2156 15.513 8.69845 17.3771 8.69845H21.6726C20.7768 4.5621 17.9271 3 12.0001 3C4.6171 3 2 5.41406 2 12.2226C2 19.0321 4.6171 21.4452 12.0001 21.4452C18.0628 21.4452 20.9074 19.8127 21.7318 15.459H17.3771Z" fill="#8D55F9"/>
<path fill-rule="evenodd" clip-rule="evenodd" d="M11.6416 8.79542H7.49912C7.07671 8.79542 6.73389 8.4526 6.73389 8.03019C6.73389 7.60778 7.07671 7.26495 7.49912 7.26495H11.6416C12.064 7.26495 12.4069 7.60778 12.4069 8.03019C12.4069 8.4526 12.064 8.79542 11.6416 8.79542Z" fill="#8D55F9"/>
<path fill-rule="evenodd" clip-rule="evenodd" d="M17.3773 13.9285C16.358 13.9285 15.5275 13.099 15.5275 12.0797C15.5275 11.0594 16.358 10.2289 17.3773 10.2289H21.9034C21.9636 10.8503 21.9993 11.5063 21.9993 12.2226C21.9993 12.8297 21.9707 13.3898 21.9279 13.9285H17.3773ZM18.2855 12.0184C18.2855 12.4408 17.9426 12.7836 17.5202 12.7836C17.0978 12.7836 16.755 12.4408 16.755 12.0184C16.755 11.596 17.0978 11.2532 17.5202 11.2532C17.9426 11.2532 18.2855 11.596 18.2855 12.0184Z" fill="#8D55F9"/>
</svg>
