<svg width="64" height="64" viewBox="0 0 64 64" fill="none" xmlns="http://www.w3.org/2000/svg">
<rect width="64" height="64" rx="32" fill="#EBE1FE"/>
<path d="M32.2507 44.25C31.5674 44.25 31.0007 43.6833 31.0007 43V39.5C31.0007 38.8167 31.5674 38.25 32.2507 38.25C32.9341 38.25 33.5007 38.8167 33.5007 39.5V43C33.5007 43.6833 32.9341 44.25 32.2507 44.25Z" fill="#8D55F9"/>
<path d="M41.8339 49.916H22.6672V46.9994C22.6672 44.466 24.7172 42.416 27.2506 42.416H37.2506C39.7839 42.416 41.8339 44.466 41.8339 46.9994V49.916ZM25.1672 47.416H39.3339V46.9994C39.3339 45.8493 38.4006 44.916 37.2506 44.916H27.2506C26.1006 44.916 25.1672 45.8493 25.1672 46.9994V47.416Z" fill="#8D55F9"/>
<path d="M42.2507 49.916H22.2507C21.5674 49.916 21.0007 49.3493 21.0007 48.666C21.0007 47.9827 21.5674 47.416 22.2507 47.416H42.2507C42.9341 47.416 43.5007 47.9827 43.5007 48.666C43.5007 49.3493 42.9341 49.916 42.2507 49.916Z" fill="#8D55F9"/>
<path d="M42.7162 32.7336C42.3662 32.7336 42.0162 32.5836 41.7662 32.3003C41.4495 31.9336 41.3662 31.4169 41.5662 30.9836C42.1329 29.6836 42.4162 28.3003 42.4162 26.8503V21.8503C42.4162 21.2669 42.3162 20.7003 42.1162 20.1003C42.0995 20.0503 42.0829 19.9836 42.0662 19.9169C42.0162 19.6669 41.9995 19.4169 41.9995 19.1836C41.9995 18.5003 42.5662 17.9336 43.2495 17.9336H44.2495C47.2329 17.9336 49.6662 20.4336 49.6662 23.5169C49.6662 26.0669 48.6162 28.5836 46.7995 30.4003C46.7662 30.4336 46.6662 30.5169 46.6495 30.5336C45.6662 31.3503 44.5495 32.2669 43.0495 32.6836C42.9329 32.7169 42.8329 32.7336 42.7162 32.7336ZM44.7995 20.4836C44.8829 20.9336 44.9162 21.4003 44.9162 21.8503V26.8503C44.9162 27.5336 44.8662 28.1836 44.7662 28.8503C44.8662 28.7669 44.9495 28.7003 45.0495 28.6169C46.3829 27.2836 47.1662 25.4169 47.1662 23.5169C47.1662 22.0169 46.1495 20.7503 44.7995 20.4836Z" fill="#8D55F9"/>
<path d="M21.3007 32.6667C21.1673 32.6667 21.0507 32.65 20.9173 32.6C19.5507 32.1667 18.2673 31.3667 17.2007 30.3C15.284 28.1833 14.334 25.8667 14.334 23.4167C14.334 20.3833 16.7173 18 19.7507 18H20.834C21.2507 18 21.6507 18.2167 21.884 18.5667C22.1173 18.9167 22.1507 19.3667 21.984 19.75C21.7173 20.35 21.584 21.0333 21.584 21.75V26.75C21.584 28.1833 21.8673 29.5833 22.4507 30.9167C22.6507 31.3667 22.5507 31.8833 22.234 32.25C21.984 32.5167 21.6507 32.6667 21.3007 32.6667ZM19.1673 20.55C17.8173 20.8167 16.834 21.9833 16.834 23.4167C16.834 25.2333 17.5673 26.9833 19.0173 28.5833C19.084 28.6667 19.1673 28.7333 19.2507 28.8C19.134 28.1167 19.084 27.4333 19.084 26.75V21.75C19.084 21.35 19.1173 20.95 19.1673 20.55Z" fill="#8D55F9"/>
<path d="M31.9999 39.9173C24.8833 39.9173 19.0833 34.1173 19.0833 27.0007V22.0007C19.0833 17.634 22.6333 14.084 26.9999 14.084H36.9999C41.3666 14.084 44.9166 17.634 44.9166 22.0007V27.0007C44.9166 34.1173 39.1166 39.9173 31.9999 39.9173ZM26.9999 16.584C24.0166 16.584 21.5833 19.0173 21.5833 22.0007V27.0007C21.5833 32.7507 26.2499 37.4173 31.9999 37.4173C37.7499 37.4173 42.4166 32.7507 42.4166 27.0007V22.0007C42.4166 19.0173 39.9833 16.584 36.9999 16.584H26.9999Z" fill="#8D55F9"/>
</svg>
