<svg width="64" height="64" viewBox="0 0 64 64" fill="none" xmlns="http://www.w3.org/2000/svg">
<rect width="64" height="64" rx="32" fill="#EBE1FE"/>
<path d="M46.9999 45.75H30.3333C29.6499 45.75 29.0833 45.1833 29.0833 44.5C29.0833 43.8167 29.6499 43.25 30.3333 43.25H46.9999C47.6833 43.25 48.2499 43.8167 48.2499 44.5C48.2499 45.1833 47.6833 45.75 46.9999 45.75Z" fill="#8D55F9"/>
<path d="M46.9999 34.084H30.3333C29.6499 34.084 29.0833 33.5173 29.0833 32.834C29.0833 32.1507 29.6499 31.584 30.3333 31.584H46.9999C47.6833 31.584 48.2499 32.1507 48.2499 32.834C48.2499 33.5173 47.6833 34.084 46.9999 34.084Z" fill="#8D55F9"/>
<path d="M46.9999 22.416H30.3333C29.6499 22.416 29.0833 21.8493 29.0833 21.166C29.0833 20.4827 29.6499 19.916 30.3333 19.916H46.9999C47.6833 19.916 48.2499 20.4827 48.2499 21.166C48.2499 21.8493 47.6833 22.416 46.9999 22.416Z" fill="#8D55F9"/>
<path d="M18.6674 24.0837C18.3507 24.0837 18.034 23.9671 17.784 23.7171L16.1174 22.0504C15.634 21.5671 15.634 20.7671 16.1174 20.2837C16.6007 19.8004 17.4007 19.8004 17.884 20.2837L18.6674 21.0671L22.784 16.9504C23.2674 16.4671 24.0674 16.4671 24.5507 16.9504C25.034 17.4337 25.034 18.2337 24.5507 18.7171L19.5507 23.7171C19.3007 23.9671 18.984 24.0837 18.6674 24.0837Z" fill="#8D55F9"/>
<path d="M18.6674 35.7497C18.3507 35.7497 18.034 35.6331 17.784 35.3831L16.1174 33.7164C15.634 33.2331 15.634 32.4331 16.1174 31.9497C16.6007 31.4664 17.4007 31.4664 17.884 31.9497L18.6674 32.7331L22.784 28.6164C23.2674 28.1331 24.0674 28.1331 24.5507 28.6164C25.034 29.0997 25.034 29.8997 24.5507 30.3831L19.5507 35.3831C19.3007 35.6331 18.984 35.7497 18.6674 35.7497Z" fill="#8D55F9"/>
<path d="M18.6674 47.4158C18.3507 47.4158 18.034 47.2991 17.784 47.0491L16.1174 45.3824C15.634 44.8991 15.634 44.0991 16.1174 43.6158C16.6007 43.1324 17.4007 43.1324 17.884 43.6158L18.6674 44.3991L22.784 40.2824C23.2674 39.7991 24.0674 39.7991 24.5507 40.2824C25.034 40.7658 25.034 41.5658 24.5507 42.0491L19.5507 47.0491C19.3007 47.2991 18.984 47.4158 18.6674 47.4158Z" fill="#8D55F9"/>
</svg>
