<svg width="64" height="64" viewBox="0 0 64 64" fill="none" xmlns="http://www.w3.org/2000/svg">
<rect width="64" height="64" rx="32" fill="#EBE1FE"/>
<path d="M18.6666 39.5007C18.6666 40.8267 19.1933 42.0985 20.131 43.0362C21.0687 43.9739 22.3405 44.5007 23.6666 44.5007C23.6666 45.6057 24.1055 46.6655 24.887 47.4469C25.6684 48.2283 26.7282 48.6673 27.8332 48.6673C28.9383 48.6673 29.9981 48.2283 30.7795 47.4469C31.5609 46.6655 31.9999 45.6057 31.9999 44.5007C31.9999 45.6057 32.4389 46.6655 33.2203 47.4469C34.0017 48.2283 35.0615 48.6673 36.1666 48.6673C37.2716 48.6673 38.3314 48.2283 39.1128 47.4469C39.8942 46.6655 40.3332 45.6057 40.3332 44.5007C41.2196 44.5007 42.0902 44.2651 42.8556 43.8181C43.621 43.371 44.2538 42.7284 44.6891 41.9563C45.1244 41.1841 45.3467 40.3101 45.3331 39.4238C45.3194 38.5375 45.0704 37.6707 44.6116 36.9123C45.7523 36.6919 46.7808 36.0812 47.5203 35.1851C48.2598 34.289 48.6643 33.1634 48.6643 32.0015C48.6643 30.8396 48.2598 29.714 47.5203 28.8179C46.7808 27.9218 45.7523 27.3111 44.6116 27.0907C45.0709 26.3322 45.3202 25.4653 45.334 24.5787C45.3479 23.6921 45.1257 22.8179 44.6903 22.0454C44.2549 21.273 43.622 20.6303 42.8563 20.1831C42.0907 19.7359 41.2199 19.5004 40.3332 19.5007C40.3332 18.3956 39.8942 17.3358 39.1128 16.5544C38.3314 15.773 37.2716 15.334 36.1666 15.334C35.0615 15.334 34.0017 15.773 33.2203 16.5544C32.4389 17.3358 31.9999 18.3956 31.9999 19.5007C31.9999 18.3956 31.5609 17.3358 30.7795 16.5544C29.9981 15.773 28.9383 15.334 27.8332 15.334C26.7282 15.334 25.6684 15.773 24.887 16.5544C24.1055 17.3358 23.6666 18.3956 23.6666 19.5007C22.7801 19.5006 21.9096 19.7362 21.1442 20.1832C20.3788 20.6303 19.746 21.2729 19.3107 22.045C18.8754 22.8172 18.6531 23.6912 18.6667 24.5775C18.6804 25.4638 18.9294 26.3306 19.3882 27.089C18.2475 27.3094 17.219 27.9201 16.4795 28.8162C15.7399 29.7123 15.3354 30.838 15.3354 31.9998C15.3354 33.1617 15.7399 34.2873 16.4795 35.1834C17.219 36.0795 18.2475 36.6902 19.3882 36.9107C18.9157 37.6919 18.6661 38.5876 18.6666 39.5007Z" stroke="#8D55F9" stroke-width="2" stroke-linecap="round" stroke-linejoin="round"/>
<path d="M24.5 36.168L27.57 26.958C27.6471 26.7281 27.7944 26.5283 27.9912 26.3867C28.188 26.2452 28.4242 26.169 28.6667 26.169C28.9091 26.169 29.1454 26.2452 29.3422 26.3867C29.5389 26.5283 29.6863 26.7281 29.7633 26.958L32.8333 36.168M37.8333 26.168V36.168M26.1667 32.8346H31.1667" stroke="#8D55F9" stroke-width="2" stroke-linecap="round" stroke-linejoin="round"/>
</svg>
